<svg xmlns="http://www.w3.org/2000/svg" fill="none" viewBox="0 0 64 64">
  <path fill="#fff" d="M0 0h64v64H0z"/>
  <g fill="#B11F24" clip-path="url(#a)">
    <path d="M14.47 39.752a20.02 20.02 0 0 0 1.629-.128 60.82 60.82 0 0 0 2.849-.515 24.554 24.554 0 0 0 5.464-1.864 23.321 23.321 0 0 0 4.456-2.656 38.852 38.852 0 0 0 2.72-2.25 29.86 29.86 0 0 0 2.122-2.228 33.065 33.065 0 0 0 1.843-2.357 26.934 26.934 0 0 0 3.213-5.934 47.723 47.723 0 0 0 1.285-3.729c.475-1.622.79-3.287.943-4.97.086-1.029.15-2.035.236-3.064 0-.02.022-.064 0-.085a.77.77 0 0 0-.15-.215 24.278 24.278 0 0 0-1.328-.492 19.574 19.574 0 0 0-4.157-.987c-1.092-.128-2.206-.256-3.32-.278a24.14 24.14 0 0 0-3.043.171c-.879.1-1.752.25-2.614.45-1.355.29-2.677.72-3.942 1.286a25.315 25.315 0 0 0-3.535 1.864 17.941 17.941 0 0 0-2.978 2.27c-.793.772-1.607 1.5-2.314 2.336a29.47 29.47 0 0 0-2.057 2.808 20.864 20.864 0 0 0-2.25 4.541 21.896 21.896 0 0 0-1.242 5.1c-.107 1.028-.192 2.078-.3 3.127h.022c.02.386.085.75.085 1.136.013 1.06.135 2.115.364 3.15.237 1.033.494 2.062.772 3.085a.39.39 0 0 0 .235.214c.878.086 1.757.193 2.657.236.793.021 1.564 0 2.335-.022Zm41.393-10.391c-.278.471-.493.943-.771 1.371-.686 1.072-1.35 2.143-2.079 3.171-.47.665-1.007 1.286-1.542 1.907-.793.879-1.607 1.735-2.42 2.592a48.04 48.04 0 0 1-1.48 1.479c-.3.278-.6.556-.92.814a91.203 91.203 0 0 1-2.293 1.714c-.836.578-1.671 1.157-2.528 1.65-.771.45-1.585.835-2.4 1.22a30.914 30.914 0 0 1-4.713 1.886c-1.05.3-2.1.6-3.15.814-1.006.215-2.035.343-3.063.472-.858.107-1.714.128-2.55.193-.235.021-.493 0-.728 0-.322 0-.643.043-.965.021-.492-.021-.985-.064-1.478-.086-.343-.02-.707-.021-1.05-.064a17.815 17.815 0 0 1-1.05-.172 47.265 47.265 0 0 1-1.713-.278c-.322-.064-.643-.171-.965-.257-.942-.257-1.864-.471-2.785-.75-.771-.236-1.543-.557-2.335-.835 5.163 7.262 16.176 12.383 27.552 8.162a23.996 23.996 0 0 0 15.426-25.024Z"/>
    <path d="M29.682 44.016c.483-.039.962-.11 1.435-.215a30.057 30.057 0 0 0 6.3-2.185 30.585 30.585 0 0 0 4.434-2.571 30.071 30.071 0 0 0 5.657-5.013c.706-.793 1.413-1.607 2.056-2.464a30.209 30.209 0 0 0 2.807-4.478c.579-1.2 1.093-2.421 1.628-3.642.107-.235.235-.536.15-.728a21.778 21.778 0 0 0-2.185-4.114c-1.414 5.848-4.221 10.884-8.12 15.361-3.9 4.479-8.592 7.906-14.162 10.049Zm9.105-13.648c-.557.75-1.178 1.478-1.757 2.207-.214.257-.428.492-.642.75-.471.514-.921 1.05-1.414 1.542-.386.386-.814.708-1.178 1.093-.6.643-1.307 1.136-1.972 1.693-.428.342-.9.664-1.35.985-.364.257-.75.493-1.135.729-.386.235-.771.47-1.178.707.775-.27 1.533-.585 2.27-.943a33.027 33.027 0 0 0 4.671-2.764 31.612 31.612 0 0 0 4.114-3.45 31.432 31.432 0 0 0 2.121-2.356 47.504 47.504 0 0 0 2.014-2.635 29.094 29.094 0 0 0 2.764-4.907 64.72 64.72 0 0 0 1.05-2.57 35.352 35.352 0 0 0 1.414-5.164c.085-.407.064-.729-.3-.986-.3-.213-.536-.47-.814-.685-.665-.536-1.329-1.05-1.993-1.564-.021.021-.064.021-.086.043-.02.257-.02.514-.064.77-.107.708-.193 1.436-.322 2.144-.15.856-.278 1.713-.492 2.57a87.5 87.5 0 0 1-1.371 4.607c-.282.84-.597 1.669-.943 2.485-.257.6-.579 1.178-.878 1.757a36.204 36.204 0 0 1-2.529 3.942Z"/>
  </g>
  <defs>
    <clipPath id="a">
      <path fill="#fff" d="M0 0h48v48H0z" transform="translate(8 8)"/>
    </clipPath>
  </defs>
</svg>