<svg xmlns="http://www.w3.org/2000/svg" fill="none" viewBox="0 0 64 64">
  <path fill="#fff" d="M0 0h64v64H0z"/>
  <path fill="#000" d="M10.218 22.931c-.793-.486-1.725-.708-2.643-.708-3.086 0-5.575 2.42-5.575 5.52 0 3.03 2.475 5.409 5.465 5.409.918 0 1.947-.265 2.752-.738v-1.543a4.191 4.191 0 0 1-2.795 1.085c-2.335 0-4.115-1.961-4.115-4.255 0-2.322 1.794-4.283 4.143-4.283.988 0 2.017.362 2.768 1.03v-1.516Zm6.3 5.437c1.515-.18 2.517-1.432 2.517-2.934 0-1.001-.5-1.987-1.377-2.503-.834-.472-1.835-.486-2.767-.486h-1.585V32.93h1.308v-4.436h.542l3.087 4.435h1.585l-3.31-4.56Zm-1.905-4.755h.348c1.293 0 2.85.236 2.85 1.877 0 1.669-1.445 1.919-2.78 1.919h-.418v-3.796Zm7.772 9.316h5.632v-1.196h-4.325V27.77h4.2v-1.196h-4.2v-2.933h4.325v-1.196h-5.631V32.93l-.001-.001Zm15.08-2.628 1.196 2.628h1.404L35.06 22l-5.005 10.929h1.405l1.195-2.628h4.811Zm-.542-1.195h-3.727l1.863-4.242 1.864 4.241Zm7.258-5.465h2.49v-1.196h-6.285v1.196h2.488v9.288h1.307v-9.288Zm6.314-1.196h-1.307V32.93h1.307V22.445Zm3.83 0h-1.433l4.561 11.04L62 22.445h-1.432l-3.114 7.76-3.13-7.76ZM19.61 40.885l.599 1.314h.701l-2.502-5.465-2.503 5.465h.702l.598-1.314h2.405Zm-.27-.598h-1.864l.932-2.12.931 2.12Zm5.471-.73v.597h1.356c-.027.855-.904 1.558-1.717 1.558-1.133 0-2.037-1.042-2.037-2.141 0-1.175.918-2.128 2.092-2.128.64 0 1.273.34 1.648.855l.459-.438a2.747 2.747 0 0 0-2.134-1.014c-1.509 0-2.719 1.237-2.719 2.746 0 1.453 1.183 2.718 2.65 2.718 1.466 0 2.481-1.105 2.481-2.545v-.208h-2.079Zm3.492 2.642h2.816v-.598h-2.163V39.62h2.1v-.599h-2.1v-1.466h2.163v-.598h-2.816V42.2v-.001Zm4.329 0h.652v-3.907l3.935 4.122v-5.458h-.652v3.873l-3.935-4.122v5.492ZM42.734 37.2a2.53 2.53 0 0 0-1.32-.355c-1.544 0-2.79 1.21-2.79 2.76 0 1.516 1.238 2.705 2.733 2.705.459 0 .974-.132 1.377-.368v-.773c-.383.347-.88.54-1.397.543-1.169 0-2.058-.98-2.058-2.128 0-1.16.897-2.14 2.071-2.14.494 0 1.008.18 1.384.514V37.2Zm2.712 2.718v2.28h.654v-2.28l1.71-2.962h-.75l-1.287 2.24-1.286-2.24h-.751l1.71 2.963Z"/>
</svg>