<svg xmlns="http://www.w3.org/2000/svg" viewBox="0 0 705.213 705.213">
  <path fill="#ed1c24" d="M705.214 352.606c0 194.74-157.868 352.606-352.607 352.606C157.868 705.212 0 547.346 0 352.606 0 157.866 157.868 0 352.608 0c194.738 0 352.606 157.866 352.606 352.606"/>
  <path fill="#fff" d="M632.346 414.464c-12.573 1.322-25.362-.42-33.696-9.015 0 0 13.878-7.3 26.453-8.622 27.05-3.353 22.477 15.508 7.243 17.636zm27.473-10.59c0-14.544-25.974-14.038-32.743-13.326-12.09 1.27-30.94 9.096-30.94 9.096-.792-2.85-1.568-6.276-1.873-9.18-.915-8.7 1.456-18.73 4.026-26.824 1.53-4.072 2.623-7.61 3.77-10.665 1.146-3.055 1.81-6.058.968-9.393-7.178 6.133-13.888 10.856-20.253 15.437l-.624.408c.213-.384.44-.758.63-1.154 1.48-3.05 1.996-6.705 1.55-10.96-.448-4.257-2.72-9.01-6.814-14.26a65.754 65.754 0 0 0-5.475-6.34 128.69 128.69 0 0 1-5.472-5.923c-1.697-1.956-3.157-3.94-4.38-5.95-1.224-2.007-1.988-4.474-2.295-7.392-.307-2.922.52-5.495 2.477-7.727.964-1 2.116-1.81 3.458-2.43 1.338-.618 3.08-1.04 5.223-1.266 2.143-.224 4.283.48 6.423 2.11 1.038.792 1.903 1.796 2.596 3.017.687 1.223 1.112 2.584 1.27 4.085.16 1.5.088 2.973-.21 4.41-.3 1.436-.03 2.66.808 3.67.836 1.008 1.937 1.58 3.3 1.72 3.068.295 5.982-.884 8.742-3.536 3.063-2.965 4.363-6.645 3.9-11.04-.444-4.227-2.73-7.782-6.857-10.67-5.045-3.572-11.683-4.93-19.915-4.064-9.402.99-16.805 4.664-22.21 11.024-4.754 5.618-6.8 11.543-6.147 17.77.79 7.51 4.99 15.366 12.6 23.564l5.46 6.175c1.718 1.9 3.175 3.73 4.37 5.488 1.2 1.76 1.915 3.75 2.148 5.975.235 2.225-.565 4.25-2.398 6.072a8.812 8.812 0 0 1-2.754 1.893c-1.022.446-2.283.746-3.785.903-1.5.16-2.992-.105-4.47-.794-4.077-1.877-6.42-5.708-7.027-11.495-.242-2.28-1.474-3.3-3.698-3.067-2.56.268-4.892 1.61-7 4.025-1.01 1.118-1.81 2.455-2.407 4.007-.595 1.554-.803 3.192-.622 4.916.415 3.95 2.498 7.19 6.253 9.72 4.533 3.013 10.39 4.14 17.564 3.386.42-.045.83-.12 1.244-.18v.002c20.607-3.082 28.406-10.732 32.503-13.607-4.3 10.233-8.51 21.4-4.597 40.66 0 0-359.57 141.606-369.377 43.115-16.878-5.58-40.627 6.908-38.4 24.72C194.83 568.752 589.34 409.56 589.34 409.56c5.783 12.416 21.343 15.307 34.584 15.307 19.124 0 37.166-8.903 35.895-20.993M258.4 341.962c4.55-8.577 9.75-13.173 15.59-13.787 3.84-.403 6.048 2.147 6.626 7.656.58 5.51-1.96 11.595-7.613 18.264-6.17 7.117-13.85 11.635-23.04 13.557 1.787-9.748 4.598-18.31 8.436-25.688zm-18.067 59.265c5.463 4.375 12.286 6.132 20.462 5.272 13.85-1.456 23.913-6.058 30.185-13.803 1.44-2.345 2.006-4.99 1.696-7.938-.157-1.505-.675-2.813-1.55-3.93-.877-1.116-1.817-1.624-2.818-1.518-1.002.105-2.113.913-3.332 2.418-1.22 1.508-2.846 3.013-4.88 4.52-5.723 4.426-11.81 6.976-18.262 7.655-3.784.398-6.85-.965-9.205-4.094-1.104-1.4-1.952-3.043-2.542-4.92-.592-1.877-.94-3.6-1.05-5.162-.108-1.562-.092-2.746.05-3.55 9-1.056 17.303-3.392 24.91-7.003 3.692-1.795 7.06-3.864 10.103-6.208 3.045-2.346 5.615-4.906 7.714-7.686 2.097-2.78 3.652-5.782 4.663-9.01 1.01-3.23 1.352-6.666 1.024-10.316-.326-3.648-1.186-6.75-2.58-9.304-3.994-7.51-10.748-10.765-20.26-9.765-8.123.854-15.848 4.676-23.176 11.463-3.38 3.167-6.447 6.764-9.2 10.794a75.5 75.5 0 0 0-6.982 12.63 67.486 67.486 0 0 0-4.24 13.438c-.927 4.566-1.246 9.284-.96 14.145.673 9.605 4.082 16.896 10.23 21.872"/>
  <path fill="#fff" d="M308.35 398.632c1.09.73 2.344 1.288 3.762 1.672 1.418.386 2.864.5 4.34.346 1.473-.155 2.59-.765 3.35-1.827.76-1.065 1.598-2.854 2.515-5.37l3.488-10.15c1.41-4.255 3.406-9.61 5.99-16.07l11.85-18.877 6.197-9.255c2.05-2.97 4.487-6.28 7.31-9.922 2.823-3.642 5.097-5.554 6.822-5.735 3.057-.322 4.696.546 4.912 2.603.216 2.06-.35 4.96-1.7 8.7l-2.215 6.223c-.966 2.575-2.575 7.328-4.827 14.26-3.043 10.103-4.227 18.384-3.548 24.836.556 5.284 2.63 9.23 6.22 11.832a13.49 13.49 0 0 0 5.273 2.398c1.927.415 4.31.473 7.146.175 2.837-.297 5.832-1.762 8.986-4.4 4.71-3.87 6.808-8.28 6.286-13.23-.12-1.17-.767-1.694-1.936-1.57-.556.06-1.74.69-3.555 1.89-1.814 1.205-3.89 1.93-6.226 2.174-3.004.316-4.605-.47-4.805-2.363-.444-4.226.933-11.202 4.128-20.932 1.015-3.2 2.1-6.364 3.262-9.495 1.16-3.132 2.493-7.194 3.99-12.19 1.5-4.993 2.02-9.688 1.558-14.083-.462-4.394-2.372-7.85-5.73-10.365-1.587-1.182-3.392-2.032-5.413-2.552-2.024-.518-4.454-.628-7.29-.33-2.837.298-6.556 2.377-11.156 6.233-2.278 1.873-5.296 5.535-9.053 10.993l-5.102 7.62c-1.692 2.654-5.172 8.588-10.445 17.8-.188.36-.108.07.246-.868l1.29-3.763a166.36 166.36 0 0 0 1.84-5.763 149.67 149.67 0 0 0 1.866-6.735 62.52 62.52 0 0 0 1.318-6.717c.304-2.196.345-4.353.122-6.466-.222-2.116-1.466-4.038-3.727-5.768-1.048-.847-2.294-1.473-3.743-1.886-1.448-.407-3.44-.48-5.97-.215-2.532.267-4.98 1.17-7.35 2.714-1.155.796-2.06 1.68-2.717 2.647-.656.97-.934 1.942-.83 2.916.1.974.45 1.626 1.048 1.956l1.79.993c1.8 1.048 2.832 2.853 3.1 5.41.503 4.785-1.665 15.727-6.504 32.828l-3.47 11.92c-1.008 3.257-1.908 5.937-2.698 8.044l-2.46 7.093c-.97 2.577-1.407 4.28-1.32 5.116.223 2.114 1.484 3.95 3.785 5.506m92.626-9.737c1.09.73 2.343 1.286 3.763 1.673a11.7 11.7 0 0 0 4.337.344c1.473-.155 2.59-.764 3.35-1.826.76-1.066 1.6-2.856 2.517-5.37l3.487-10.15c1.41-4.255 3.406-9.61 5.99-16.07l11.85-18.878 6.2-9.255c2.047-2.97 4.485-6.28 7.307-9.922 2.824-3.643 5.097-5.555 6.822-5.737 3.056-.32 4.696.548 4.912 2.605.217 2.06-.35 4.96-1.7 8.7l-2.215 6.224c-.967 2.576-2.576 7.33-4.828 14.26-3.045 10.104-4.227 18.385-3.55 24.837.556 5.285 2.63 9.228 6.22 11.83a13.48 13.48 0 0 0 5.273 2.4c1.927.415 4.31.473 7.147.175 2.837-.297 5.832-1.762 8.985-4.4 4.71-3.87 6.81-8.28 6.29-13.23-.125-1.17-.77-1.694-1.94-1.57-.555.06-1.74.69-3.555 1.89-1.812 1.205-3.89 1.927-6.224 2.174-3.005.315-4.606-.47-4.805-2.364-.442-4.227.933-11.205 4.13-20.934 1.013-3.2 2.1-6.365 3.26-9.496 1.16-3.13 2.493-7.194 3.99-12.19 1.503-4.99 2.02-9.686 1.56-14.082-.464-4.393-2.374-7.85-5.73-10.364-1.587-1.183-3.392-2.034-5.414-2.553-2.025-.518-4.453-.628-7.29-.33-2.837.298-6.557 2.377-11.156 6.234-2.28 1.872-5.296 5.535-9.054 10.992l-5.103 7.623c-1.69 2.654-5.17 8.586-10.445 17.8-.187.36-.107.07.246-.87l1.292-3.76a168.56 168.56 0 0 0 1.84-5.763c.667-2.206 1.29-4.45 1.865-6.735a62.293 62.293 0 0 0 1.32-6.717c.303-2.198.344-4.353.123-6.468-.223-2.113-1.467-4.035-3.728-5.766-1.047-.846-2.294-1.474-3.742-1.885-1.45-.408-3.44-.48-5.97-.214-2.533.266-4.982 1.17-7.35 2.713-1.154.795-2.06 1.68-2.717 2.646-.656.97-.933 1.94-.832 2.914.102.974.45 1.627 1.05 1.956l1.79.994c1.8 1.047 2.83 2.852 3.1 5.41.502 4.785-1.665 15.726-6.504 32.826l-3.472 11.923c-1.007 3.254-1.905 5.935-2.697 8.04l-2.46 7.094c-.966 2.578-1.405 4.28-1.317 5.116.222 2.114 1.482 3.95 3.783 5.506m111.916-116.031a11.558 11.558 0 0 0 4.288 2.67c1.606.562 3.26.656 4.966.28a14.11 14.11 0 0 0 4.764-2.02 15.445 15.445 0 0 0 3.84-3.61c1.086-1.434 1.913-3.07 2.48-4.9.565-1.83.71-4.066.434-6.71-.28-2.64-1.878-4.737-4.795-6.287a11.164 11.164 0 0 0-3.806-1.288c-1.345-.196-3.196-.17-5.56.08-2.365.248-4.79 1.375-7.28 3.38a11.475 11.475 0 0 0-3.1 3.825c-.768 1.515-1.003 3.69-.705 6.53.298 2.836 1.79 5.52 4.473 8.05M496.09 373.84c2.94 4.978 7.636 7.125 14.09 6.446 5.617-.59 9.89-3.006 12.82-7.25 2-2.91 2.868-5.616 2.605-8.12-.2-1.89-1.02-2.76-2.466-2.61-.56.06-1.416.46-2.576 1.2-1.16.74-2.936 1.235-5.328 1.487-2.448.257-3.8-.837-4.056-3.285-.39-3.726.804-10.01 3.585-18.853l3.798-12.04c1.42-4.143 3.1-9.563 5.04-16.263 1.938-6.7 2.645-12.553 2.118-17.56-.45-4.283-4.76-5.995-12.94-5.135-3.337.352-6.19 1.297-8.56 2.84-1.154.797-2.06 1.68-2.716 2.648-.656.97-.934 1.94-.833 2.914.104.972.453 1.626 1.05 1.955l1.79.992c.66.383 1.296.95 1.91 1.698.614.752 1.053 2.38 1.315 4.882.264 2.503-.807 7.845-3.21 16.03l-3.315 10.977a225.968 225.968 0 0 0-3.337 11.19c-.993 3.677-1.78 7.162-2.36 10.456-.583 3.296-.737 6.25-.462 8.865.278 2.615.955 4.792 2.04 6.535m-339.536 10.217c-4.856.51-9.287-.114-13.774-1.28 25.535-32.146 39.12-71.015 67.638-100.746 4.828 4.404 8.8 13.057 9.48 19.532 3.006 28.6-34.206 79.432-63.344 82.494zm-71.174 28.76c-3.778.398-13.604.338-14.172-5.06-.51-4.856 1.96-7.296 7.357-7.864 8.635-.907 13.692 2.378 20.194 7.15-4.09 2.613-9.062 5.32-13.378 5.774zM218.625 273.87c1.024-.653 7.835-7.395 9.34-8.645 2.527-1.903 4.402-4.828 4.29-5.908-.17-1.617-1.902-2.526-2.982-2.412-3.24.34-14.082 10.234-17.15 12.194-12.465-9.605-29.704-12.703-45.353-11.058-30.758 3.233-64.754 17.174-79.07 47.05-3.098 6.87-5.54 14.767-4.747 22.322 1.53 14.57 14.49 23.606 28.453 21.607 13.177-1.885 26.58-11.97 28.944-29.28-.136.114-4.284 1.015-4.63 1.036-6.476.682-12.75-1.933-13.432-8.408-2.495-23.743 29.23-38.537 49.734-40.692 10.792-1.133 21.264-.63 31.005 3.802-16.018 13.685-34.59 34.766-45.242 52.797-9.744 16.304-17.81 32.97-28.69 48.848-12.666-6.31-22.72-8.525-37.29-6.994-15.108 1.588-40.1 12.944-38.003 32.91 1.815 17.27 18.314 23.716 33.423 22.13 8.094-.852 15.68-6.306 22.298-10.82 9.258 5.03 19.252 6.45 29.504 5.374 46.405-4.878 97.705-67.008 92.828-113.416-1.19-11.332-5.194-23.462-13.23-32.437"/>
</svg>