<svg xmlns="http://www.w3.org/2000/svg" fill="none" viewBox="0 0 64 64">
  <path fill="#00574A" d="M0 0h64v64H0z"/>
  <g clip-path="url(#a)">
    <path fill="#9BC437" d="M38.972 31.707c-.33-.258-.733-.478-1.137-.552.33-.11.66-.257.917-.478.33-.257.624-.551.808-.882.183-.294.33-.625.477-1.103.11-.405.183-.81.183-1.177s-.073-.735-.183-1.103c-.11-.367-.33-.662-.66-.919-.294-.257-.625-.368-1.028-.368-.33 0-.698.147-.918.368-.293.257-.44.588-.44.92 0 .404.11.771.33 1.029.22.257.55.404.991.404.404 0 .624-.147.77-.257.074-.037.147-.11.184-.11.147 0 .184.183.184.257 0 .404-.184.735-.588 1.03-.403.22-.77.404-1.21.514-.258.074-.551.147-.808.184l-.44.11c-.257.074-.55.147-.808.22-.22.075-.403.111-.623.185-.294.073-.588.147-.845.294-.44.184-.77.404-.99.662a1.63 1.63 0 0 0-.404 1.103c0 .441.11.662.294.662.183 0 .33-.148.513-.331.367-.368.844-.552 1.395-.552.477 0 .844.11 1.21.331.331.22.588.552.808.993.184.441.294.846.294 1.25 0 .368-.074.735-.184 1.213-.11.441-.257.81-.44 1.177-.147.257-.367.662-.66 1.066-.22.331-.514.625-.808.956-.257.294-.587.589-.88.883-.294.294-.588.514-.918.809-.294.257-.697.44-.88.44-.221 0-.551-.146-.918-.44-.33-.258-.587-.515-.918-.81-.293-.294-.55-.55-.807-.845-.11-.11-.184-.22-.294-.294-.22-.22-.44-.478-.624-.699a7.638 7.638 0 0 1-.697-1.066c-.22-.368-.367-.736-.514-1.14-.22-.404-.256-.809-.256-1.213 0-.441.073-.846.256-1.25.184-.442.477-.736.808-.993.33-.22.734-.331 1.21-.331.368 0 .625.037.881.147.22.074.514.22.735.478.11.147.22.22.366.22.22 0 .367-.257.367-.588 0-.625-.403-1.14-.807-1.544l-.734-.735c-.147-.11-.257-.258-.404-.405-.44-.441-.697-.772-.88-1.14-.147-.294-.22-.588-.294-.919a4.247 4.247 0 0 1-.11-.956c0-.441.073-.882.183-1.287.147-.404.33-.809.551-1.103.257-.367.587-.625.917-.845.367-.221.771-.331 1.211-.331.367 0 .845.036 1.248.183.404.148.77.442.991.773.22.294.33.735.33 1.25 0 .551-.33 1.176-.77 1.176-.294 0-.44-.478-.624-.662-.184-.22-.404-.367-.844-.367-.404 0-.66.147-.954.478-.22.257-.33.625-.33 1.066 0 .552.183.956.55 1.287.367.33.77.515 1.32.515.551 0 .918-.074 1.249-.184.403-.184.77-.405 1.064-.735.257-.258.477-.626.66-1.104.147-.404.257-.808.257-1.213a3.67 3.67 0 0 0-.183-1.213 2.757 2.757 0 0 0-.66-1.03 3.544 3.544 0 0 0-1.065-.662 4.489 4.489 0 0 0-1.174-.33 6.57 6.57 0 0 0-1.248-.11c-.44 0-.844.073-1.248.146-.513.074-.88.184-1.21.331-.404.184-.771.368-1.102.625a3.35 3.35 0 0 0-.88.883c-.257.33-.44.698-.588 1.14-.146.44-.22.882-.22 1.286 0 .442.074.883.22 1.324.147.368.367.735.661 1.14.294.368.624.662.954.92.294.22.624.44.954.624a4.468 4.468 0 0 0-.99 0c-.441.037-.808.147-1.138.258-.33.147-.66.33-.991.588-.33.22-.587.515-.807.809a3.826 3.826 0 0 0-.514 1.03c0 .33-.11.735-.11 1.176 0 .368.036.772.147 1.176.073.368.22.773.403 1.14.147.331.367.662.587 1.03.22.33.44.662.698.956.22.257.477.515.734.735.293.294.697.625 1.027.883.33.257.697.514 1.064.735.33.184.66.404.954.551.404.184.808.295 1.138.405.404.147.807.22 1.174.22.404 0 .771-.11 1.175-.22.367-.11.734-.257 1.1-.441.33-.147.661-.368 1.028-.589.367-.22.66-.44.954-.661.294-.221.624-.478.918-.736.293-.294.587-.625.844-.956.22-.257.477-.551.66-.845.22-.331.367-.699.514-1.067a7.7 7.7 0 0 0 .404-1.103c.11-.404.11-.809.11-1.176 0-.478-.11-.956-.294-1.398-.257-.514-.514-.882-.88-1.176Z"/>
    <path fill="#fff" d="M21.798 40.568V23.213a.486.486 0 0 0-.477-.478h-1.578a.486.486 0 0 0-.477.478v7.28H10.57v-7.28a.486.486 0 0 0-.477-.478H8.477a.486.486 0 0 0-.477.478v17.355c0 .258.22.478.477.478h1.578c.257 0 .477-.22.477-.478v-7.537h8.66v7.537c0 .258.22.478.478.478h1.578c.33.037.55-.184.55-.478Zm31.45-4.78c0 1.397-.954 2.758-2.9 2.758h-4.77V33.03h4.77c1.909 0 2.9 1.323 2.9 2.757Zm-.734-7.979c0 1.324-.808 2.574-2.606 2.574h-4.293v-5.11h4.293c1.762 0 2.606 1.25 2.606 2.536Zm.88 3.714c1.212-.846 1.872-2.5 1.872-3.824 0-2.941-2.092-4.964-5.174-4.964h-6.79a.408.408 0 0 0-.403.405v17.538c0 .221.184.405.404.405h6.972c3.817 0 5.762-2.206 5.762-5.295-.037-2.353-1.321-3.75-2.642-4.265Z"/>
  </g>
  <defs>
    <clipPath id="a">
      <path fill="#fff" d="M0 0h48v20.039H0z" transform="translate(8 22)"/>
    </clipPath>
  </defs>
</svg>