<svg xmlns="http://www.w3.org/2000/svg" fill="none" viewBox="0 0 64 64">
  <path fill="#fff" d="M0 0h64v64H0z"/>
  <path fill="#A8C920" d="M55.974 48.704c0 3.964-3.227 7.19-7.191 7.19h-33.58c-3.965 0-7.191-3.226-7.191-7.19v-8.25l23.97-14.406L55.973 40.43v8.274Z"/>
  <path fill="#17346D" d="M55.985 35.565 31.993 21.16 8 35.588V22.382L31.993 8l23.992 14.382v13.183Z"/>
  <path fill="#A8C920" d="M54.81 55.895a1.141 1.141 0 0 1-1.153-1.152c0-.646.508-1.153 1.153-1.153s1.152.507 1.152 1.153c.023.645-.507 1.152-1.152 1.152Zm0-2.12a.974.974 0 0 0-.968.968c0 .53.438.968.968.968s.968-.438.968-.968c.023-.53-.415-.968-.968-.968Zm.507 1.682h-.115c-.023 0-.046-.023-.046-.023l-.346-.553-.046-.023h-.185v.53c0 .023-.023.07-.069.07h-.115c-.023 0-.046-.024-.046-.07v-1.29c0-.047.023-.093.07-.093.068 0 .23-.023.322-.023.345 0 .553.115.553.438v.023c0 .208-.115.323-.277.392l.323.53v.046c.023.023 0 .046-.023.046Zm-.23-1.037c0-.161-.093-.23-.323-.23h-.208v.484h.208c.23 0 .322-.07.322-.254Z"/>
</svg>