<svg xmlns="http://www.w3.org/2000/svg" fill="none" viewBox="0 0 64 64">
  <circle cx="32" cy="32" r="32" fill="#fff"/>
  <path fill="#000" d="M29.58.023c-.023.023-.448.081-.932.115-.482.046-1 .103-1.15.127-.137.034-.46.08-.723.126-2.69.391-6.208 1.517-8.91 2.851-3.391 1.667-5.806 3.437-8.68 6.322-3.057 3.069-4.978 6.011-7.012 10.701C1.667 21.426.668 24.99.448 26.358.07 28.886 0 29.762 0 32.047c0 1.712.103 3.402.23 4.058.023.137.069.46.103.712.047.425.45 2.437.586 2.989 1.185 4.586 3.38 8.942 6.29 12.471 1.332 1.61 4.012 4.208 5.38 5.208 2.563 1.862 4.748 3.114 7.23 4.138 2.127.873 5.266 1.759 7.07 1.977.253.035.541.08.633.114.092.024.563.081 1.034.116.471.046 1.07.102 1.323.126.62.057 3.816.057 4.31 0 .219-.035.77-.08 1.208-.126.327-.022.653-.06.977-.116.092-.022.426-.068.736-.114 3.793-.471 8.783-2.403 12.312-4.759 1.909-1.276 1.817-1.208 3.162-2.334 2.564-2.126 5.035-4.989 6.782-7.85 1.587-2.598 3.162-6.358 3.737-8.92.322-1.483.517-2.471.574-3.035.047-.38.104-.713.115-.748.093-.148.207-2.505.207-4.023.011-1.54-.102-3.494-.207-3.908-.022-.092-.068-.436-.114-.747-.15-1.31-.644-3.413-1.173-5.058-1.264-3.953-3.174-7.425-5.92-10.77-1.047-1.276-3.68-3.793-4.978-4.77-.69-.53-1.323-.99-1.38-1.034-.3-.23-1.782-1.185-1.839-1.185-.035 0-.276-.138-.54-.299-.495-.31-2.105-1.126-2.908-1.47a41.08 41.08 0 0 0-.864-.38c-1.62-.713-5.138-1.68-7.184-1.978a70.38 70.38 0 0 0-1.265-.185c-.54-.092-5.967-.194-6.047-.126v.001Zm1.046 14.358c.161.033.494.092.747.126 2.817.39 4.794 1.31 6.438 2.989.932.953 1.54 2.01 1.909 3.345.345 1.24.345 3.378.011 4.678-.679 2.551-2.392 4.494-5.161 5.885-1.45.724-1.507.437.757 4.034.794 1.265 1.485 2.31 1.53 2.334a.193.193 0 0 1 .092.161c0 .102.748 1.218 2.184 3.253.402.563.77 1.057.805 1.092.035.035.413.506.84 1.046 1.183 1.54 3.563 3.908 4.506 4.495.437.264 1.288.643 1.666.735.644.149.875.276 1.116.586l.276.369-.495.102c-.758.162-3.426.127-4.495-.069-2.057-.368-3.737-1.275-5.403-2.92-1.655-1.631-2.862-3.286-6.047-8.31-.518-.827-1.345-2.115-1.828-2.874l-.896-1.379-1.772-.022c-.976-.013-1.896-.024-2.023-.024-.184-.011-.436-.31-.953-1.08-.38-.587-.701-1.092-.701-1.116 0-.034 1.23-.057 2.736-.068 3.103-.012 4-.15 5.402-.805 1.415-.678 2.622-2.15 2.967-3.609.092-.437.102-.47.218-.977.127-.598.16-3.184.046-3.862-.15-.943-.598-2.207-1.047-2.943-.448-.77-1.436-1.804-2.184-2.31-.563-.391-1.988-1-2.563-1.104a7.353 7.353 0 0 1-.632-.15c-.162-.045-2.852-.091-5.979-.115-3.127-.022-5.748-.057-5.829-.092-.126-.045-1.069-1.355-1.069-1.495 0-.09 14.44 0 14.83.093Z"/>
</svg>