<svg xmlns="http://www.w3.org/2000/svg" fill="none" viewBox="0 0 64 64">
  <path fill="#fff" d="M0 0h64v64H0z"/>
  <path fill="#000" d="M9.21 30.142c-.086-.506-.493-.777-1.122-.777-.593 0-.963.209-.988.543-.012.271.185.407.827.543l1.247.26c.84.185 1.26.357 1.556.654.346.345.506.814.506 1.444 0 1.346-1.222 2.272-3.013 2.272-1.926 0-3.098-.877-3.21-2.408h1.914c.012.618.482.95 1.309.95.617 0 1.024-.27 1.024-.666 0-.32-.221-.493-.765-.617l-1.222-.272c-1.532-.345-2.123-.938-2.074-2.061.06-1.347 1.135-2.1 2.951-2.1 1.703 0 2.765.803 2.937 2.235H9.211Zm4.446 1.346c0 1.21.568 1.975 1.457 1.975.888 0 1.457-.765 1.457-1.976 0-1.196-.569-1.961-1.457-1.961-.89 0-1.457.765-1.457 1.962Zm.074-3.396v.692c.457-.617 1.025-.876 1.901-.876 1.705 0 2.914 1.481 2.914 3.58 0 2.111-1.198 3.593-2.914 3.593-.828 0-1.32-.197-1.901-.728v2.703h-2v-8.964h2Zm9.95 2.581c-.049-.765-.543-1.234-1.283-1.234-.79 0-1.297.432-1.457 1.234h2.74Zm-2.752 1.407c.135.915.678 1.433 1.517 1.433.556 0 .927-.185 1.21-.605h2.014c-.358 1.296-1.643 2.173-3.186 2.173-1.185 0-2.05-.346-2.692-1.087-.555-.629-.876-1.53-.876-2.432 0-2.21 1.395-3.654 3.518-3.654 1.433 0 2.531.765 3.025 2.098.21.568.297 1.173.31 2.074h-4.84Zm9.864-1.543c-.124-.641-.58-1.013-1.26-1.013-.877 0-1.394.692-1.394 1.866 0 1.407.469 2.073 1.457 2.073.678 0 1.085-.383 1.234-1.172h1.95c-.197 1.728-1.432 2.79-3.246 2.79-2.149 0-3.408-1.358-3.408-3.667 0-2.136 1.333-3.506 3.42-3.506 1.815 0 3.013 1 3.148 2.629h-1.901Zm4.505 4.358h-2v-6.803h2v6.803Zm0-7.741h-2v-1.641h2v1.641Zm5.012 4.507a5.29 5.29 0 0 1-.728.21l-.716.16c-.753.16-1.061.42-1.025.853.037.42.408.666 1.025.666.803 0 1.444-.507 1.444-1.136v-.753Zm-4.098-1.432c.123-1.618 1.087-2.321 3.16-2.321.877 0 1.704.258 2.21.703.494.432.679.975.679 1.988v3.124c0 .74.025.84.26 1.172h-2.05a6.504 6.504 0 0 1-.16-.53c-.667.542-1.136.716-1.952.716-1.517 0-2.492-.852-2.492-2.185 0-.704.357-1.322.962-1.667.432-.247.951-.407 1.728-.544l1.1-.173c.444-.073.593-.197.593-.469 0-.37-.409-.616-.976-.616-.803 0-1.186.233-1.272.802h-1.79Z"/>
  <path fill="#000" fill-rule="evenodd" d="M43.087 25.513h2v9.383h-2v-9.383Z" clip-rule="evenodd"/>
  <path fill="#000" d="M47.925 34.895h-2v-6.803h2v6.803Zm0-7.741h-2v-1.641h2v1.641Zm4.692 2.988c-.086-.506-.494-.777-1.123-.777-.593 0-.963.209-.988.543-.012.271.185.407.827.543l1.247.26c.84.185 1.26.357 1.556.654.346.345.506.814.506 1.444 0 1.346-1.222 2.272-3.013 2.272-1.926 0-3.098-.877-3.21-2.408h1.914c.012.618.482.95 1.308.95.618 0 1.025-.27 1.025-.666 0-.32-.221-.493-.765-.617l-1.223-.272c-1.53-.345-2.122-.938-2.073-2.061.06-1.347 1.135-2.1 2.95-2.1 1.704 0 2.766.803 2.94 2.235h-1.878ZM59 29.501h-1.222v2.728c0 1.074.037 1.16.505 1.16H59v1.506h-1.222c-.877 0-1.31-.123-1.605-.444-.32-.346-.395-.703-.395-1.765V29.5h-.952v-1.409h.952V26.02h2v2.073H59v1.409Zm-46.097 8.661-.975 4.222-1.075-4.222h-1.74l-1.037 4.222-1.038-4.222H5.013l2.025 6.803h1.877l1.062-4.47 1.147 4.47h1.915l1.925-6.803h-2.06Zm3.84 3.395c0 1.272.58 2 1.605 2 1.013 0 1.592-.716 1.592-2 0-1.272-.58-1.988-1.592-1.988-1.025 0-1.605.728-1.605 1.988Zm5.21 0c0 2.11-1.494 3.593-3.605 3.593-2.124 0-3.618-1.482-3.618-3.593 0-2.099 1.494-3.58 3.618-3.58 2.123 0 3.605 1.481 3.605 3.58Zm2.335-3.395-.05 1.222c.284-.74.482-1 .927-1.197.345-.161.63-.198 1.42-.21v1.888c-.247-.024-.321-.037-.544-.037-.458 0-1.222.322-1.432.816-.197.444-.271 1.086-.271 2.407v1.914h-2v-6.803h1.95Zm2.863-2.58v9.383h2v-2.358l.618-.605 1.728 2.963h2.445l-2.815-4.21 2.593-2.593h-2.482l-2.087 2.333v-4.914h-2Z"/>
  <path fill="#000" d="M37.808 40.21c-.086-.505-.493-.777-1.123-.777-.592 0-.964.21-.988.544-.013.27.185.407.828.543l1.246.259c.84.185 1.26.359 1.556.655.346.345.506.814.506 1.444 0 1.346-1.222 2.272-3.012 2.272-1.926 0-3.1-.877-3.21-2.408h1.914c.012.618.481.95 1.308.95.618 0 1.025-.27 1.025-.665 0-.322-.223-.494-.765-.618l-1.223-.271c-1.531-.347-2.124-.94-2.075-2.062.062-1.347 1.137-2.1 2.951-2.1 1.705 0 2.767.803 2.939 2.235h-1.877ZM16.97 23.444c-.036-.567-.402-.915-.952-.915-.585 0-.96.32-1.079.915h2.031Zm-2.04 1.044c.1.677.503 1.06 1.125 1.06.412 0 .687-.137.897-.448h1.492c-.266.962-1.217 1.61-2.362 1.61-.877 0-1.518-.256-1.994-.805-.412-.467-.65-1.134-.65-1.802 0-1.638 1.034-2.71 2.608-2.71 1.061 0 1.876.568 2.242 1.557.156.42.22.87.229 1.538h-3.588Zm-6.4 2.085h1.48V23.75c0-.531.037-.669.201-.842a.897.897 0 0 1 .658-.255c.238 0 .457.1.576.264.128.174.164.357.164.833v2.823h1.48v-3.098c0-.75-.126-1.179-.447-1.535a1.742 1.742 0 0 0-1.27-.54c-.548 0-.933.156-1.362.566l.004-2.08L8.534 19l-.005 7.572Zm-.426-4.002v-1.047h-.91V19.98h-.001l-1.486.89v.653H5v1.047h.707v2.369c0 .79.055 1.055.294 1.313.22.238.541.33 1.194.33h.909v-1.12H7.57c-.35 0-.376-.064-.376-.863v-2.03h.909Z"/>
</svg>