<svg xmlns="http://www.w3.org/2000/svg" fill="none" viewBox="0 0 900 600"><path fill="#B0BEC5" d="m782.996 529.566.861-19.232A62.77 62.77 0 0 1 813 503c-13.997 11.376-12.248 33.306-21.737 48.605-6.07 9.62-16.212 15.973-27.56 17.265L751.99 576c-3.253-18.027 1.598-36.566 13.274-50.733a60.731 60.731 0 0 1 11.179-10.327c2.806 7.354 6.553 14.626 6.553 14.626ZM195.545 509.027l-27.826-8.499a95.42 95.42 0 0 1 .072-45.528c11.459 24.821 44.2 30.505 63.07 50.187 11.827 12.527 17.365 29.8 15.048 46.941L252 572c-27.587-2.009-52.919-16.102-69.322-38.567a92.408 92.408 0 0 1-10.967-20.292c11.802-1.35 23.834-4.114 23.834-4.114Z"/><path fill="#78909C" d="M686 572.815a2.221 2.221 0 0 1-.645 1.551 2.172 2.172 0 0 1-1.541.634h-8.788a2.178 2.178 0 0 1-2.186-2.17V307.238c0-5.854-1.967-10.606-4.383-10.616h-547.04c-2.426.01-4.383 4.762-4.394 10.616v263.95a2.192 2.192 0 0 1-1.978 2.174c-1.771.174-3.542.327-5.301.469-.044 0-.088.011-.131.011-.962.088-1.924.153-2.886.23h-.011c-.503-.907-.984-1.836-1.476-2.764a2.293 2.293 0 0 1-.24-1.016V293.465c0-1.617.066-3.244.175-4.85.156-2.205.429-4.4.82-6.575 1.847-10.148 6.022-17.018 10.766-17.04h556.341a5.14 5.14 0 0 1 2.012.426 7.83 7.83 0 0 1 2.481 1.737 15.39 15.39 0 0 1 2.437 3.331c2.339 4.118 4.012 10.257 4.602 17.4 0 .066.011.131.011.197.153 1.769.229 3.572.218 5.374l.153 23.407.099 13.96.295 43.8.109 15.554.481 182.629Z"/><path fill="#90A4AE" d="M483.008 184h-56.023a2.98 2.98 0 0 0-2.985 2.976V275h62v-88.024a2.982 2.982 0 0 0-2.989-2.976h-.003Zm-27.823 50.014c-3.647-.017-6.599-2.953-6.616-6.58v-10.153c0-3.633 2.962-6.579 6.616-6.579 3.653 0 6.615 2.946 6.615 6.579v10.153c-.017 3.627-2.969 6.563-6.615 6.58Z"/><path fill="#37474F" d="M424 272v8.365a1.651 1.651 0 0 0 1.659 1.635h58.682a1.656 1.656 0 0 0 1.659-1.635V272h-62Z"/><path fill="#78909C" d="M575.269 47H336.731c-4.267.007-7.724 3.456-7.731 7.712v160.576c.004 4.257 3.463 7.708 7.731 7.712h238.538c4.268-.004 7.727-3.455 7.731-7.712V54.712c-.007-4.256-3.464-7.705-7.731-7.712Z"/><path fill="#fff" d="M572.879 52H339.121A4.134 4.134 0 0 0 335 56.137v156.735a4.131 4.131 0 0 0 4.121 4.128h233.758a4.132 4.132 0 0 0 4.121-4.128V56.137A4.134 4.134 0 0 0 572.879 52Z"/><path fill="#90A4AE" d="M527.445 285h-138.89c-1.411 0-2.555-1.118-2.555-2.497 0-.173.018-.346.055-.515l2.155-10.005c.253-1.153 1.293-1.979 2.5-1.983h134.58c1.206.004 2.247.83 2.5 1.983l2.155 10.005c.29 1.35-.593 2.674-1.974 2.958-.173.036-.35.054-.526.054Z"/><path fill="#78909C" d="M395.379 272h-3.758c-.343 0-.621.185-.621.414v1.172c0 .229.278.414.621.414h3.758c.343 0 .621-.185.621-.414v-1.172c0-.229-.278-.414-.621-.414ZM403.503 272h-3.006c-.274 0-.497.185-.497.414v1.172c0 .229.223.414.497.414h3.006c.274 0 .497-.185.497-.414v-1.172c0-.229-.223-.414-.497-.414ZM412.503 272h-3.006c-.274 0-.497.185-.497.414v1.172c0 .229.223.414.497.414h3.006c.274 0 .497-.185.497-.414v-1.172c0-.229-.223-.414-.497-.414ZM420.503 272h-3.006c-.274 0-.497.185-.497.414v1.172c0 .229.223.414.497.414h3.006c.274 0 .497-.185.497-.414v-1.172c0-.229-.223-.414-.497-.414ZM429.503 272h-3.006c-.274 0-.497.185-.497.414v1.172c0 .229.223.414.497.414h3.006c.274 0 .497-.185.497-.414v-1.172c0-.229-.223-.414-.497-.414ZM438.379 272h-3.758c-.343 0-.621.185-.621.414v1.172c0 .229.278.414.621.414h3.758c.343 0 .621-.185.621-.414v-1.172c0-.229-.278-.414-.621-.414ZM446.503 272h-3.006c-.274 0-.497.185-.497.414v1.172c0 .229.223.414.497.414h3.006c.274 0 .497-.185.497-.414v-1.172c0-.229-.223-.414-.497-.414ZM455.379 272h-3.758c-.343 0-.621.185-.621.414v1.172c0 .229.278.414.621.414h3.758c.343 0 .621-.185.621-.414v-1.172c0-.229-.278-.414-.621-.414ZM463.503 272h-3.006c-.274 0-.497.185-.497.414v1.172c0 .229.223.414.497.414h3.006c.274 0 .497-.185.497-.414v-1.172c0-.229-.223-.414-.497-.414ZM472.503 272h-3.006c-.274 0-.497.185-.497.414v1.172c0 .229.223.414.497.414h3.006c.274 0 .497-.185.497-.414v-1.172c0-.229-.223-.414-.497-.414ZM480.503 272h-3.006c-.274 0-.497.185-.497.414v1.172c0 .229.223.414.497.414h3.006c.274 0 .497-.185.497-.414v-1.172c0-.229-.223-.414-.497-.414ZM489.503 272h-3.006c-.274 0-.497.185-.497.414v1.172c0 .229.223.414.497.414h3.006c.274 0 .497-.185.497-.414v-1.172c0-.229-.223-.414-.497-.414ZM498.379 272h-3.758c-.343 0-.621.185-.621.414v1.172c0 .229.278.414.621.414h3.758c.343 0 .621-.185.621-.414v-1.172c0-.229-.278-.414-.621-.414ZM506.503 272h-3.006c-.274 0-.497.185-.497.414v1.172c0 .229.223.414.497.414h3.006c.274 0 .497-.185.497-.414v-1.172c0-.229-.223-.414-.497-.414ZM515.379 272h-3.758c-.343 0-.621.185-.621.414v1.172c0 .229.278.414.621.414h3.758c.343 0 .621-.185.621-.414v-1.172c0-.229-.278-.414-.621-.414ZM523.503 272h-3.006c-.274 0-.497.185-.497.414v1.172c0 .229.223.414.497.414h3.006c.274 0 .497-.185.497-.414v-1.172c0-.229-.223-.414-.497-.414ZM395.379 276h-3.758a.621.621 0 0 0-.621.621v1.758c0 .343.278.621.621.621h3.758a.621.621 0 0 0 .621-.621v-1.758a.621.621 0 0 0-.621-.621ZM403.503 276h-3.006c-.274 0-.497.278-.497.621v1.758c0 .343.223.621.497.621h3.006c.274 0 .497-.278.497-.621v-1.758c0-.343-.223-.621-.497-.621ZM412.379 276h-3.758a.621.621 0 0 0-.621.621v1.758c0 .343.278.621.621.621h3.758a.621.621 0 0 0 .621-.621v-1.758a.621.621 0 0 0-.621-.621ZM420.503 276h-3.006c-.274 0-.497.278-.497.621v1.758c0 .343.223.621.497.621h3.006c.274 0 .497-.278.497-.621v-1.758c0-.343-.223-.621-.497-.621ZM429.503 276h-3.006c-.274 0-.497.278-.497.621v1.758c0 .343.223.621.497.621h3.006c.274 0 .497-.278.497-.621v-1.758c0-.343-.223-.621-.497-.621ZM437.503 276h-3.006c-.274 0-.497.278-.497.621v1.758c0 .343.223.621.497.621h3.006c.274 0 .497-.278.497-.621v-1.758c0-.343-.223-.621-.497-.621ZM446.503 276h-3.006c-.274 0-.497.278-.497.621v1.758c0 .343.223.621.497.621h3.006c.274 0 .497-.278.497-.621v-1.758c0-.343-.223-.621-.497-.621ZM455.379 276h-3.758a.621.621 0 0 0-.621.621v1.758c0 .343.278.621.621.621h3.758a.621.621 0 0 0 .621-.621v-1.758a.621.621 0 0 0-.621-.621ZM463.503 276h-3.006c-.274 0-.497.278-.497.621v1.758c0 .343.223.621.497.621h3.006c.274 0 .497-.278.497-.621v-1.758c0-.343-.223-.621-.497-.621ZM472.379 276h-3.758a.621.621 0 0 0-.621.621v1.758c0 .343.278.621.621.621h3.758a.621.621 0 0 0 .621-.621v-1.758a.621.621 0 0 0-.621-.621ZM480.503 276h-3.006c-.274 0-.497.278-.497.621v1.758c0 .343.223.621.497.621h3.006c.274 0 .497-.278.497-.621v-1.758c0-.343-.223-.621-.497-.621ZM489.503 276h-3.006c-.274 0-.497.278-.497.621v1.758c0 .343.223.621.497.621h3.006c.274 0 .497-.278.497-.621v-1.758c0-.343-.223-.621-.497-.621ZM498.379 276h-3.758a.621.621 0 0 0-.621.621v1.758c0 .343.278.621.621.621h3.758a.621.621 0 0 0 .621-.621v-1.758a.621.621 0 0 0-.621-.621ZM506.503 276h-3.006c-.274 0-.497.278-.497.621v1.758c0 .343.223.621.497.621h3.006c.274 0 .497-.278.497-.621v-1.758c0-.343-.223-.621-.497-.621ZM515.379 276h-3.758a.621.621 0 0 0-.621.621v1.758c0 .343.278.621.621.621h3.758a.621.621 0 0 0 .621-.621v-1.758a.621.621 0 0 0-.621-.621ZM523.503 276h-3.006c-.274 0-.497.278-.497.621v1.758c0 .343.223.621.497.621h3.006c.274 0 .497-.278.497-.621v-1.758c0-.343-.223-.621-.497-.621ZM466.456 281h-33.912c-.301 0-.544.278-.544.621v1.758c0 .343.243.621.544.621h33.912c.301 0 .544-.278.544-.621v-1.758c0-.343-.243-.621-.544-.621ZM561.147 74H341.853c-.482-.012-.863-.47-.853-1.022.01-.535.386-.966.853-.978h219.294c.481.012.863.47.853 1.022-.011.535-.386.966-.853.978Z"/><path fill="#90A4AE" d="M357 68c2.761 0 5-2.462 5-5.5s-2.239-5.5-5-5.5-5 2.462-5 5.5 2.239 5.5 5 5.5ZM375 68c2.761 0 5-2.462 5-5.5s-2.239-5.5-5-5.5-5 2.462-5 5.5 2.239 5.5 5 5.5ZM392.5 68a5.5 5.5 0 1 0 0-11 5.5 5.5 0 0 0 0 11Z"/><path fill="#37474F" d="M451.706 87 451 84.936 541.295 38l.705 2.064L451.706 87ZM724.706 174l-.706-2.074L778.295 125l.705 2.073L724.706 174ZM620.295 185 530 138.064l.706-2.064L621 182.936l-.705 2.064ZM666.316 152 613 65.393 614.685 64 668 150.607 666.316 152ZM708 39l-52-.295V36l52 .295V39Z"/><path fill="#1976D2" d="M801.684 52h-58.368C735.41 52 729 45.732 729 38s6.41-14 14.316-14h58.368C809.59 24 816 30.268 816 38s-6.41 14-14.316 14ZM873.684 135h-58.368C807.41 135 801 128.732 801 121s6.41-14 14.316-14h58.368c7.906 0 14.316 6.268 14.316 14s-6.41 14-14.316 14Z"/><path fill="#37474F" d="m780 194-52-.196V192l52 .196V194Z"/><path fill="#1976D2" d="M873.684 208h-58.368C807.41 208 801 201.508 801 193.5s6.41-14.5 14.316-14.5h58.368c7.906 0 14.316 6.492 14.316 14.5s-6.41 14.5-14.316 14.5ZM703.848 198h-57.696c-7.816 0-14.152-6.492-14.152-14.5s6.336-14.5 14.152-14.5h57.696c7.816 0 14.152 6.492 14.152 14.5s-6.336 14.5-14.152 14.5ZM625.684 51h-58.368C559.41 51 553 44.732 553 37s6.41-14 14.316-14h58.368C633.59 23 640 29.268 640 37s-6.41 14-14.316 14Z"/><path fill="#37474F" d="M349.263 295h-65.526c-4.825 0-8.737 3.903-8.737 8.718 0 4.815 3.912 8.718 8.737 8.718h24.026V380h17.474v-67.564h24.026c4.825 0 8.737-3.903 8.737-8.718 0-4.815-3.912-8.718-8.737-8.718Z"/><path fill="#37474F" d="M391.746 418H216.778c-35.061-.129-64.724-26.029-69.685-60.845l-6.194-22.852a513.818 513.818 0 0 0-57.98-134.411c-11.718-19.088-17.75-37.565-4.051-55.355l.344-.448c10.987-14.344 65.671-17.449 83.498-18.053a62.248 62.248 0 0 1 2.121-.036h108.828c.71 0 1.417.012 2.12.036 19.579.572 37.265 11.88 46.049 29.441 9.372 17.93 8.177 39.574-3.114 56.355-38.228 57.603-49.933 93.721-37.95 117.112 11.591 22.624 47.121 34.192 111.815 36.401 17.386.594 25.365 14.174 25.421 26.539.054 12.046-7.617 25.346-24.589 26.081-.551.023-1.106.035-1.665.035Z"/><path fill="#FFCCBC" d="M214 167c17.673 0 32-14.103 32-31.5S231.673 104 214 104c-17.673 0-32 14.103-32 31.5s14.327 31.5 32 31.5Z"/><path fill="#263238" d="M218.816 141.452c1.24-4.416-.317-6.025 1.269-8.008.001 0 .639-.797 6.347-2.95-1.684-9.734-.423-11.38-.423-11.38 1.454-1.897 4.365-2.355 6.347-2.107 4.192.525 4.934 4.299 7.617 4.215 3.705-.117 8.149-7.505 6.77-13.909-1.125-5.223-5.977-9.103-7.193-8.43-1.206.668-5.547-2.275-7.194-1.685-1.124.402-6.416-.133-7.616.421-1.31.606-5.063 4.376-5.422 3.901-2.493-3.301-2.44-4.454-3.887-5.165-2.563-1.261-5.35 1.07-10.155 3.371-9.887 4.737-12.782 1.912-17.348 5.901-2.307 2.015-3.544 5.867-5.924 13.487-3.329 10.657-4.993 15.986-3.385 21.074 1.639 5.189 4.053 4.059 7.616 11.38 3.966 8.149 2.599 12.885 6.347 14.751 2.896 1.443 7.551.525 9.309-2.107 3.009-4.506-4.769-10.601-2.116-17.702 1.629-4.359 6.652-7.664 9.732-6.744 3.483 1.041 3.74 7.262 5.924 7.165 1.871-.082 3.169-4.709 3.385-5.479Z"/><path fill="#37474F" d="M246.737 574h65.526c4.825 0 8.737-3.914 8.737-8.742 0-4.828-3.912-8.741-8.737-8.741h-24.026V409h-17.474v147.517h-24.026c-4.825 0-8.737 3.913-8.737 8.741 0 4.828 3.912 8.742 8.737 8.742Z"/><path fill="#FFCCBC" d="M306 513.913 317.241 520 347 478.985 330.408 470 306 513.913ZM334.864 96.985c1.022 6.925-3.828 13.358-10.833 14.369-.747.107-1.502.15-2.257.126L277.794 204 264 184.982l45.274-87.485c.696-7.003 7.002-12.123 14.086-11.435 5.926.575 10.683 5.091 11.504 10.923Z"/><path fill="#1976D2" d="M190.015 223.462s-1.163 16.144 17.072 19.311c18.235 3.166 66.983-27.698 74.988-32.437 8.006-4.739 22.925-64.364 22.925-64.364L292.025 124c-16.019 20.289-28.598 38.997-29.362 52.278l-72.648 47.184Z"/><path fill="#FFCCBC" d="m211 278.688 3.948 16.974s.039 15.65 2.809 18.536c2.751 2.872 63.243-2.895 63.243-2.895s-6.414-25.22-6.328-44.303L211 278.688Z"/><path fill="#263238" d="m338.696 496-21.819-11.985c-.415-28.355 16.662-66.727 36.916-106.919-45.298 7.781-88.032 10.273-124.996.861-12.626-3.33-20.236-16.169-17.086-28.827.144-.597.31-1.188.499-1.773 4.424-13.48-5.496-21.93 3.628-36.756 23.996-8.185 46.791-10.496 67.636-3.269l13.061 28.842 64.738-8.367c13.09-1.563 24.971 7.768 26.536 20.842l.02.179c.088.702.144 1.407.171 2.114-13.09 61.29-27.768 116.438-49.304 145.058Z"/><path fill="#1976D2" d="m202.461 171.487 24.8-1.478a5.031 5.031 0 0 1 4.951 3.134l7.009 17.145 29.128 24.293s11.533 14.81 11.559 33.935c.027 19.126 4.092 63.394 4.092 63.394s-16.831-23.907-27.22-17.549c-1.767 1.082-2.389 3.294-4.24 4.412-.924.558-3.057.016-3.99.574-14.315 8.576-29.244 16.953-30.639 15.484-2.739-2.884-6.062-17.622-6.062-17.622l-22.701-84.168a31.405 31.405 0 0 1 4.393-26.23c1.586-2.254 3.247-3.93 4.792-4.207 3.467-.745 1.622-8.587 4.128-11.117Z"/><path fill="#FFCCBC" d="M414.576 550 425 542.585 401.385 497 386 507.944 414.576 550Z"/><path fill="#263238" d="M416 519.27 399.508 534c-26.223-29.197-46.047-70.144-62.847-116.646-44.018-12.881-77.213-33.656-106.192-58.323-9.831-8.312-17.201-18.99-8.817-29.115a24.26 24.26 0 0 1 1.228-1.374c9.9-10.166 35.005-8.228 49.709-17.542l32.846 35.082-2.066 9.405 61.696 20.882c12.42 4.349 18.96 17.935 14.607 30.345a24.7 24.7 0 0 1-.843 2.156L416 519.27Z"/><path fill="#FFCCBC" d="M239.188 382.95c-6.448-2.744-9.457-10.21-6.72-16.675.292-.689.644-1.351 1.052-1.978L177 278.78l23.356-1.78 51.549 83.989c5.631 4.24 6.768 12.255 2.539 17.902a12.732 12.732 0 0 1-15.256 4.059Z"/><path fill="#1976D2" d="M206.879 194.106s-13.266-9.445-25.527 4.606c-12.26 14.052-11.237 72.185-11.352 81.56-.036 2.936 4.199 9.27 10.033 16.587 2.619 3.285 5.561 6.768 8.583 10.23 1.749 2.003.242 6.173 1.998 8.121 1.747 1.936 6.757 1.651 8.418 3.448a710.756 710.756 0 0 0 14.292 15.026l25.671.316c.29-19.103-12.779-36.155-29.568-52.636l-2.548-87.258Z"/><path fill="#37474F" d="M249.263 300h-65.526c-4.825 0-8.737 3.903-8.737 8.718 0 4.815 3.912 8.718 8.737 8.718h24.026V385h17.474v-67.564h24.026c4.825 0 8.737-3.903 8.737-8.718 0-4.815-3.912-8.718-8.737-8.718Z"/><path fill="#78909C" d="M491.703 576.657 12.308 577c-.719.004-1.304-.588-1.308-1.322-.004-.733.576-1.331 1.294-1.335h.014L491.703 574c.719.002 1.299.599 1.297 1.333-.002.73-.582 1.322-1.297 1.324ZM811.697 576.657 564.306 577c-.718.004-1.302-.588-1.306-1.322-.004-.733.575-1.331 1.292-1.335h.014L811.697 574c.717-.002 1.301.591 1.303 1.324.002.734-.577 1.331-1.295 1.333h-.008ZM502.28 185h-93.56c-8.126-.009-14.711-6.635-14.72-14.811v-62.378c.009-8.176 6.594-14.802 14.72-14.811h93.56c8.126.01 14.711 6.635 14.72 14.811v62.378c-.009 8.176-6.594 14.802-14.72 14.811Zm-93.56-89.81c-6.924.008-12.535 5.654-12.543 12.621v62.378c.008 6.967 5.619 12.613 12.543 12.621h93.56c6.924-.008 12.535-5.654 12.543-12.621v-62.378c-.008-6.967-5.619-12.613-12.543-12.62h-93.56Z"/><path fill="#78909C" d="M436 113h-25v2h25v-2ZM467 121h-56v2h56v-2ZM467 129h-56v2h56v-2ZM482 137h-71v2h71v-2ZM448 144h-37v2h37v-2ZM479 152h-68v2h68v-2ZM423 160h-12v2h12v-2Z"/><path fill="#90A4AE" d="M410.611 66a.37.37 0 0 1-.279-.132l-2.221-2.561a.48.48 0 0 1 0-.614l2.221-2.561a.36.36 0 0 1 .551-.007.48.48 0 0 1 .006.62L408.934 63l1.955 2.254a.48.48 0 0 1-.006.62.367.367 0 0 1-.272.126ZM414.389 66a.367.367 0 0 1-.272-.125.48.48 0 0 1-.006-.621L416.066 63l-1.955-2.254a.48.48 0 0 1 .006-.62.36.36 0 0 1 .551.006l2.221 2.56a.48.48 0 0 1 0 .615l-2.221 2.56a.37.37 0 0 1-.279.133ZM536.12 60h-4.244a.876.876 0 0 0-.876.876v4.248c0 .484.392.876.876.876h4.244a.88.88 0 0 0 .88-.876v-4.248a.88.88 0 0 0-.88-.876ZM525.973 60h-4.951c-.565 0-1.022.392-1.022.876v4.248c0 .484.457.876 1.022.876h4.951c.565 0 1.027-.392 1.027-.876v-4.248c0-.484-.462-.876-1.027-.876ZM546.12 60h-4.244a.876.876 0 0 0-.876.876v4.248c0 .484.392.876.876.876h4.244a.88.88 0 0 0 .88-.876v-4.248a.88.88 0 0 0-.88-.876ZM480.904 61h-34.808c-.608 0-1.096.674-1.096 1.5s.488 1.5 1.096 1.5h34.808c.603 0 1.096-.674 1.096-1.5s-.493-1.5-1.096-1.5Z"/><path fill="#263238" d="M464.024 537.782c.722.646 1.778 3.132 2.069 4.056a5.382 5.382 0 0 1-3.515 6.755l-46.851 14.72a3.678 3.678 0 0 1-4.608-2.406l-.615-1.954s-4.167-5.141-1.675-13.876c0 0 7.716 3.802 13.782-7.856l1.12-5.561 23.28 7.909 10.893-2.002c2.383-.438 4.314-1.404 6.12.215ZM351.229 545.066c.043.922-1.03 3.235-1.501 4.023-1.451 2.42-4.817 3.19-7.519 1.721l-44.641-24.278c-1.843-1.003-2.536-3.154-1.546-4.804l.997-1.665s.79-6.204 9.031-9.897c0 0 2.758 7.901 15.734 4.931l4.91-2.686 10.95 21.608 9.331 6.535c2.041 1.43 4.146 2.205 4.254 4.512Z"/></svg>