<svg fill="none" xmlns="http://www.w3.org/2000/svg" viewBox="0 0 119 48"><path d="M.854 30.359A24.022 24.022 0 0 1 0 24C0 14.16 6.181 5.16 15.382 1.611l1.207 3.122C8.669 7.79 3.349 15.531 3.349 24.001c0 1.858.247 3.698.733 5.471l-3.228.887Z" fill="#69D3A7"/><path d="M42.45 14.493A20.666 20.666 0 0 0 24.062 3.348c-2.75 0-5.422.53-7.938 1.57l-1.283-3.09A23.995 23.995 0 0 1 24.06 0c9.016 0 17.201 4.96 21.36 12.946l-2.97 1.547Z" fill="url(#a)"/><path d="M16.877 19.05c1.942 0 3.524 1.035 4.337 2.841l.064.142 3.262-1.108-.07-.167c-1.263-3.076-4.172-4.988-7.593-4.988-2.405 0-4.36.771-5.975 2.354-1.606 1.573-2.418 3.552-2.418 5.882 0 2.31.812 4.279 2.418 5.852 1.615 1.583 3.57 2.354 5.975 2.354 3.421 0 6.33-1.912 7.593-4.986l.07-.167-3.267-1.11-.062.147c-.728 1.775-2.348 2.837-4.334 2.837-1.353 0-2.495-.473-3.4-1.404-.916-.943-1.38-2.127-1.38-3.52 0-1.403.453-2.565 1.38-3.551.902-.936 2.047-1.409 3.4-1.409ZM57.07 18.127c-1.506-1.563-3.383-2.357-5.585-2.357-2.187 0-3.987.78-5.356 2.313v-2.01h-3.524V37.97h3.524V29.9c1.369 1.534 3.167 2.313 5.356 2.313 2.202 0 4.082-.795 5.587-2.36 1.481-1.572 2.23-3.538 2.23-5.846-.003-2.33-.751-4.306-2.233-5.88Zm-2.764 9.397c-.902.933-2.047 1.403-3.398 1.403-1.37 0-2.482-.46-3.4-1.403-.916-.943-1.379-2.127-1.379-3.52 0-1.434.45-2.596 1.379-3.552.916-.945 2.027-1.403 3.4-1.403 1.353 0 2.496.473 3.398 1.404.909.935 1.348 2.096 1.348 3.55 0 1.435-.442 2.586-1.348 3.521ZM65.038 17.96v-1.886h-3.524v15.832h3.524v-8.933c0-1.43.576-2.526 1.713-3.253 1.13-.722 2.485-.856 4.144-.403l.214.059v-3.387l-.131-.031c-2.228-.532-4.463.234-5.94 2.002ZM80.25 15.77c-2.322 0-4.293.792-5.856 2.354-1.585 1.583-2.388 3.562-2.388 5.882 0 2.31.813 4.279 2.418 5.852 1.616 1.583 3.57 2.354 5.976 2.354 3.259 0 6.06-1.655 7.496-4.428l.082-.16-2.981-1.32-.072.141c-.865 1.67-2.524 2.668-4.432 2.668-2.48 0-4.379-1.514-4.893-3.876h12.784l.016-.151c.278-2.555-.38-4.77-1.953-6.586-1.564-1.812-3.65-2.73-6.196-2.73Zm-4.545 6.64c.626-2.16 2.39-3.543 4.546-3.543 2.215 0 3.98 1.383 4.55 3.544h-9.096ZM97.815 22.495c-1.922-.36-3.581-.673-3.581-2.01 0-1.06 1.13-1.8 2.745-1.8 1.782 0 2.76.765 2.989 2.34l.025.178 3.524-.738-.025-.159c-.474-2.798-2.969-4.538-6.51-4.538-1.778 0-3.283.46-4.472 1.367-1.214.902-1.828 2.079-1.828 3.502 0 2.061 1.306 3.608 3.5 4.138.569.133 1.17.241 1.752.35 2.184.398 4.247.775 4.247 2.245 0 1.133-1.317 1.922-3.2 1.922-1.916 0-2.973-.765-3.233-2.343l-.029-.175-3.521.738.028.161c.512 2.84 3.036 4.536 6.753 4.536 1.888 0 3.506-.47 4.802-1.395 1.297-.915 1.952-2.095 1.952-3.506 0-3.7-3.279-4.317-5.918-4.813ZM113.081 22.495c-1.921-.36-3.58-.673-3.58-2.01 0-1.06 1.129-1.8 2.744-1.8 1.783 0 2.76.765 2.989 2.34l.026.178 3.524-.738-.026-.159c-.473-2.798-2.968-4.538-6.51-4.538-1.778 0-3.282.46-4.471 1.367-1.214.902-1.829 2.079-1.829 3.502 0 2.061 1.307 3.608 3.501 4.138.569.133 1.171.241 1.752.35 2.184.398 4.247.775 4.247 2.245 0 1.133-1.317 1.922-3.2 1.922-1.917 0-2.974-.765-3.234-2.343l-.028-.175-3.521.738.028.161c.512 2.84 3.035 4.536 6.752 4.536 1.888 0 3.506-.47 4.803-1.395 1.296-.915 1.952-2.095 1.952-3.506 0-3.7-3.28-4.317-5.919-4.813Z" fill="currentColor"/><path d="m37.306 16.074-4.648 11.761-4.679-11.761h-3.828l6.562 16.053-4.668 11.322 3.346.666 11.532-28.041h-3.617Z" fill="currentColor"/><path d="m26.643 41.99-.815 1.973c-.162.39-.532.655-.95.673-.274.01-.552.018-.833.018-9.597-.005-18.088-6.771-20.192-16.094l-3.267.738c1.18 5.229 4.144 9.975 8.345 13.367A24.15 24.15 0 0 0 24.009 48h.05c.32 0 .64-.008.959-.02a4.443 4.443 0 0 0 3.91-2.745l1.064-2.58-3.349-.666Z" fill="url(#b)"/><defs><linearGradient id="a" x1="21.558" y1="-1.549" x2="39.823" y2="17.972" gradientUnits="userSpaceOnUse"><stop offset=".094" stop-color="#58D09E"/><stop offset=".988" stop-color="#58D09E" stop-opacity="0"/></linearGradient><linearGradient id="b" x1="-.256" y1="34.922" x2="34.638" y2="44.209" gradientUnits="userSpaceOnUse"><stop offset=".077" stop-color="#58D09E"/><stop offset=".762" stop-color="currentColor"/></linearGradient></defs></svg>