<svg xmlns="http://www.w3.org/2000/svg" viewBox="0 0 367 100" fill="#e10098" style="fill:color(display-p3 .8824 0 .5961)"><path fill-rule="evenodd" clip-rule="evenodd" d="m50 6.903 37.323 21.549v43.096L50 93.097 12.677 71.548V28.451L50 6.903ZM16.865 30.87v31.656L44.28 15.041 16.864 30.87ZM50 13.51 18.398 68.246h63.205L50 13.509Zm27.415 58.924h-54.83L50 88.261l27.415-15.828Zm5.72-9.908L55.72 15.041 83.136 30.87v31.656Z"/><circle cx="50" cy="9.321" r="8.82"/><circle cx="85.229" cy="29.66" r="8.82"/><circle cx="85.229" cy="70.34" r="8.82"/><circle cx="50" cy="90.679" r="8.82"/><circle cx="14.766" cy="70.34" r="8.82"/><circle cx="14.766" cy="29.66" r="8.82"/><g fill="currentColor"><path d="M138.875 71.625c-5.208 0-9.25-1.5-12.125-4.5s-4.396-7.02-4.562-12.063c-.042-1.25-.063-3.229-.063-5.937s.021-4.688.063-5.938c.166-5.041 1.687-9.062 4.562-12.062s6.917-4.5 12.125-4.5c3.542 0 6.521.667 8.938 2 2.416 1.333 4.208 2.917 5.375 4.75 1.208 1.792 1.854 3.396 1.937 4.813v.124c0 .334-.125.605-.375.813-.25.208-.562.313-.938.313h-1.374c-.375 0-.646-.084-.813-.25-.167-.167-.333-.5-.5-1-.708-2.209-2.083-4.063-4.125-5.563-2-1.5-4.708-2.25-8.125-2.25-3.875 0-6.937 1.063-9.187 3.188-2.209 2.124-3.396 5.437-3.563 9.937-.042 1.25-.062 3.125-.062 5.625s.02 4.375.062 5.625c.167 4.5 1.354 7.813 3.563 9.938 2.25 2.124 5.312 3.187 9.187 3.187 3.875 0 7-1.104 9.375-3.313 2.375-2.208 3.562-5.479 3.562-9.812v-3.188h-10.874c-.417 0-.75-.124-1-.374a1.577 1.577 0 0 1-.375-1.063v-.875c0-.417.125-.75.375-1 .25-.292.583-.438 1-.438h13.374c.459 0 .813.126 1.063.376s.375.604.375 1.062v5.5c0 3.333-.667 6.27-2 8.813-1.333 2.541-3.271 4.52-5.812 5.937-2.542 1.417-5.563 2.125-9.063 2.125ZM165.941 71c-.416 0-.75-.125-1-.375s-.375-.583-.375-1V39.937c0-.416.125-.75.375-1 .25-.291.584-.437 1-.437h1c.417 0 .75.146 1 .438.292.25.438.583.438 1v2.874c1.5-2.874 4.333-4.312 8.5-4.312h2.312c.417 0 .75.125 1 .375s.375.583.375 1v.875c0 .417-.125.75-.375 1s-.583.375-1 .375h-2.687c-2.5 0-4.479.73-5.938 2.188-1.458 1.458-2.187 3.437-2.187 5.937v19.375c0 .417-.146.75-.438 1-.25.25-.583.375-1 .375h-1ZM194.557 71.625c-2 0-3.855-.417-5.563-1.25-1.708-.833-3.083-1.958-4.125-3.375-1-1.417-1.5-2.98-1.5-4.688 0-2.75 1.104-5 3.313-6.75 2.25-1.75 5.27-2.874 9.062-3.374l9.875-1.376v-2.187c0-2.292-.708-4.042-2.125-5.25-1.375-1.25-3.5-1.875-6.375-1.875-2.125 0-3.875.417-5.25 1.25-1.333.833-2.187 1.833-2.562 3-.167.5-.375.854-.625 1.063-.209.166-.5.25-.875.25h-.875c-.375 0-.709-.126-1-.376a1.493 1.493 0 0 1-.375-1c0-.916.416-1.979 1.25-3.187.833-1.25 2.125-2.333 3.875-3.25 1.75-.917 3.895-1.375 6.437-1.375 4.458 0 7.625 1.063 9.5 3.188 1.875 2.124 2.813 4.708 2.813 7.75v20.812c0 .417-.125.75-.375 1s-.584.375-1 .375h-1.063c-.417 0-.75-.125-1-.375s-.375-.583-.375-1v-2.938c-.917 1.376-2.271 2.542-4.062 3.5-1.75.959-4.084 1.438-7 1.438Zm.625-3.625c3.041 0 5.541-1 7.5-3 1.958-2 2.937-4.875 2.937-8.625V54.25l-8.062 1.125c-3.417.458-6 1.25-7.75 2.375s-2.625 2.542-2.625 4.25c0 1.917.791 3.396 2.375 4.438 1.625 1.041 3.5 1.562 5.625 1.562ZM220.752 82.875c-.416 0-.75-.125-1-.375s-.375-.583-.375-1V39.875c0-.417.125-.75.375-1s.584-.375 1-.375h1.063c.417 0 .75.125 1 .375s.375.583.375 1v2.938c2.417-3.292 5.917-4.938 10.5-4.938 4.5 0 7.812 1.438 9.937 4.313 2.167 2.833 3.313 6.333 3.438 10.5.042.416.062 1.104.062 2.062 0 .958-.02 1.646-.062 2.063-.125 4.166-1.271 7.687-3.438 10.562-2.125 2.833-5.437 4.25-9.937 4.25-4.542 0-8.042-1.646-10.5-4.938V81.5c0 .417-.125.75-.375 1s-.583.375-1 .375h-1.063ZM233.315 68c3.375 0 5.833-1.063 7.375-3.188 1.583-2.166 2.437-4.937 2.562-8.312.042-.417.063-1 .063-1.75 0-3.875-.75-7.042-2.25-9.5-1.5-2.5-4.083-3.75-7.75-3.75-3.292 0-5.771 1.104-7.438 3.313-1.666 2.166-2.562 4.729-2.687 7.687l-.063 2.438.063 2.437a12.82 12.82 0 0 0 1.187 5.125c.75 1.583 1.875 2.896 3.375 3.938 1.5 1.041 3.355 1.562 5.563 1.562ZM257.068 71c-.416 0-.75-.125-1-.375s-.375-.583-.375-1V28c0-.417.125-.75.375-1s.584-.375 1-.375h1.063c.417 0 .75.125 1 .375s.375.583.375 1v14.813c1.25-1.626 2.667-2.855 4.25-3.688 1.625-.833 3.708-1.25 6.25-1.25 4.083 0 7.229 1.313 9.437 3.938 2.209 2.583 3.313 5.937 3.313 10.062v17.75c0 .417-.125.75-.375 1s-.583.375-1 .375h-1.063c-.416 0-.75-.125-1-.375s-.375-.583-.375-1V52.187c0-3.374-.833-6-2.5-7.874-1.625-1.876-3.979-2.813-7.062-2.813-3 0-5.396.958-7.188 2.875-1.791 1.875-2.687 4.48-2.687 7.813v17.437c0 .417-.125.75-.375 1s-.583.375-1 .375h-1.063ZM321.682 75.063c-.625 0-1.292-.48-2-1.438l-2.75-3.813c-2.5 1.209-5.417 1.813-8.75 1.813-10.708 0-16.208-5.75-16.5-17.25-.042-1.25-.062-3-.062-5.25s.02-4 .062-5.25c.167-5.667 1.708-9.958 4.625-12.875s6.875-4.375 11.875-4.375 8.958 1.458 11.875 4.375 4.458 7.208 4.625 12.875c.083 2.5.125 4.25.125 5.25s-.042 2.75-.125 5.25c-.208 5.958-1.729 10.333-4.562 13.125l4 5.625c.125.25.187.48.187.688a1.2 1.2 0 0 1-.375.874 1.2 1.2 0 0 1-.875.376h-1.375Zm-13.5-7.188c3.75 0 6.729-1.125 8.938-3.375 2.25-2.292 3.458-5.77 3.625-10.438.083-2.5.125-4.145.125-4.937 0-.792-.042-2.438-.125-4.938-.167-4.666-1.375-8.124-3.625-10.374-2.25-2.292-5.23-3.438-8.938-3.438s-6.687 1.146-8.937 3.438c-2.25 2.25-3.459 5.708-3.625 10.374-.042 1.25-.063 2.896-.063 4.938s.021 3.688.063 4.938c.166 4.666 1.354 8.145 3.562 10.437 2.25 2.25 5.25 3.375 9 3.375ZM336.126 71c-.416 0-.75-.125-1-.375s-.375-.583-.375-1v-41c0-.417.125-.75.375-1s.584-.375 1-.375h1.188c.417 0 .75.125 1 .375s.375.583.375 1V67.25h21.562c.459 0 .813.125 1.063.375s.375.604.375 1.063v.937c0 .417-.146.75-.438 1-.25.25-.583.375-1 .375h-24.125Z"/></g></svg>