<svg fill="currentColor" viewBox="0 0 117 32" xmlns="http://www.w3.org/2000/svg" class="h-[32px] max-w-[116px] fill-current"><path d="M39.157 14.162v7.598h-3.311v-6.69c0-.422-.104-.8-.312-1.135a2.213 2.213 0 0 0-.816-.813 2.17 2.17 0 0 0-1.128-.298 2.234 2.234 0 0 0-1.955 1.11c-.2.335-.3.714-.3 1.136v6.69h-3.311l-.012-17.92h3.31l.013 6.857c.4-.382.868-.68 1.404-.896a4.624 4.624 0 0 1 1.715-.322c.872 0 1.66.21 2.364.633.711.422 1.28.987 1.703 1.696.424.701.636 1.486.636 2.354Zm9.82-4.349h3.528l-6.575 17.92h-3.503l2.16-5.973-4.32-11.947h3.624l2.351 7.443 2.735-7.443Zm13.415 0h3.311v12.114c0 .884-.18 1.68-.54 2.39a5.59 5.59 0 0 1-1.475 1.84c-.616.509-1.328.9-2.136 1.17-.8.27-1.647.406-2.543.406-.848 0-1.66-.167-2.435-.502a6.639 6.639 0 0 1-2.064-1.362 6.373 6.373 0 0 1-1.403-2.006l3.023-1.374c.168.398.396.74.684 1.027.296.287.632.506 1.007.657.384.16.78.239 1.188.239.44 0 .86-.052 1.26-.155a3.64 3.64 0 0 0 1.092-.466c.32-.207.571-.466.755-.777.184-.31.276-.673.276-1.087v-1.386a4.432 4.432 0 0 1-1.343 1.111c-.52.28-1.124.418-1.812.418a6.1 6.1 0 0 1-2.435-.49 6.42 6.42 0 0 1-1.992-1.35 6.497 6.497 0 0 1-1.355-2.006 6.062 6.062 0 0 1-.492-2.438c0-.868.164-1.68.492-2.437a6.353 6.353 0 0 1 1.355-1.995 6.321 6.321 0 0 1 1.992-1.362 6.102 6.102 0 0 1 2.435-.49c.688 0 1.292.144 1.812.43a4.3 4.3 0 0 1 1.343 1.1V9.813Zm-3.107 9.092a2.7 2.7 0 0 0 1.476-.419c.44-.286.783-.665 1.031-1.134a3.22 3.22 0 0 0 .384-1.566c0-.573-.128-1.095-.384-1.564a2.892 2.892 0 0 0-1.031-1.135 2.7 2.7 0 0 0-1.476-.419c-.536 0-1.028.14-1.476.419-.44.278-.791.657-1.055 1.135a3.14 3.14 0 0 0-.396 1.565c0 .573.132 1.099.396 1.576.264.47.616.845 1.055 1.123.448.28.94.419 1.476.419Zm8.979 2.855-.012-11.947h3.31l.013.884c.4-.382.868-.68 1.404-.896a4.623 4.623 0 0 1 1.715-.322c.44 0 .88.063 1.32.19l-1.308 3.334a2.26 2.26 0 0 0-.876-.18 2.234 2.234 0 0 0-1.955 1.112c-.2.334-.3.713-.3 1.135v6.69h-3.311ZM85.23 9.813h3.311V21.76h-3.323l-.156-1.243a3.673 3.673 0 0 1-1.2 1.123c-.487.287-1.06.43-1.715.43a6.265 6.265 0 0 1-2.508-.501 6.56 6.56 0 0 1-3.443-3.429 6.41 6.41 0 0 1-.492-2.509 6.1 6.1 0 0 1 .468-2.39 6.058 6.058 0 0 1 1.32-1.958 6.287 6.287 0 0 1 1.955-1.326 6.03 6.03 0 0 1 2.4-.478c.736 0 1.396.155 1.98.466.591.31 1.107.704 1.547 1.182l-.144-1.314Zm-3.167 9.092a2.7 2.7 0 0 0 1.475-.419c.44-.278.788-.653 1.044-1.123a3.287 3.287 0 0 0 .384-1.576 3.24 3.24 0 0 0-.384-1.577 3.007 3.007 0 0 0-1.044-1.123 2.7 2.7 0 0 0-1.475-.419 2.78 2.78 0 0 0-1.5.419 3.043 3.043 0 0 0-1.068 1.135 3.14 3.14 0 0 0-.395 1.565c0 .573.132 1.099.395 1.576.272.47.632.845 1.08 1.123a2.76 2.76 0 0 0 1.488.419Zm12.311 8.828h-3.312V9.813h3.312v1.29c.383-.47.84-.852 1.367-1.146.528-.303 1.144-.454 1.848-.454a6.13 6.13 0 0 1 2.447.49 6.25 6.25 0 0 1 2.016 1.361 6.35 6.35 0 0 1 1.355 1.995 6.06 6.06 0 0 1 .492 2.438c0 .868-.164 1.684-.492 2.449a6.456 6.456 0 0 1-1.355 2.019 6.348 6.348 0 0 1-2.016 1.35 6.13 6.13 0 0 1-2.447.49c-.704 0-1.32-.152-1.848-.455a4.992 4.992 0 0 1-1.367-1.146v7.24Zm3.167-15.065c-.544 0-1.036.144-1.476.43a3.043 3.043 0 0 0-1.032 1.123c-.248.47-.371.992-.371 1.566 0 .573.123 1.099.371 1.576.256.47.6.845 1.032 1.123a2.7 2.7 0 0 0 1.476.419c.544 0 1.04-.14 1.487-.419a3.036 3.036 0 0 0 1.08-1.123 3.09 3.09 0 0 0 .408-1.576c0-.566-.132-1.084-.396-1.554a3.011 3.011 0 0 0-1.08-1.135 2.723 2.723 0 0 0-1.5-.43Zm18.791 1.494v7.598h-3.311v-6.69c0-.422-.104-.8-.312-1.135a2.213 2.213 0 0 0-.816-.813 2.17 2.17 0 0 0-1.128-.298 2.235 2.235 0 0 0-1.955 1.11c-.2.335-.3.714-.3 1.136v6.69h-3.312l-.012-17.92h3.312l.012 6.857c.4-.382.867-.68 1.403-.896a4.626 4.626 0 0 1 1.716-.322c.872 0 1.659.21 2.363.633.712.422 1.28.987 1.704 1.696.424.701.636 1.486.636 2.354Z"/><path fill-rule="evenodd" clip-rule="evenodd" d="M14.9 4.267 11.175 6.4 7.45 8.533l-3.725 2.134v12.8l3.725-2.134 3.725-2.133v-4.267L7.45 17.067V12.8l3.725-2.133L14.9 8.533v12.8l-3.725 2.134L7.45 25.6l-3.725 2.133L0 29.866 3.725 32l3.725-2.134 3.725-2.133L14.9 25.6l3.726-2.133V2.133L14.9 0v4.267Z"/></svg>