<svg fill="none" xmlns="http://www.w3.org/2000/svg" viewBox="0 0 185 48"><path fill-rule="evenodd" clip-rule="evenodd" d="M62.427 13.33h1.129c.77 0 1.396.624 1.396 1.397v1.32c0 .042.034.075.074.075.643-1.138 1.508-1.963 2.597-2.482a8.111 8.111 0 0 1 3.523-.775c1.361 0 2.586.252 3.674.757a8.247 8.247 0 0 1 2.782 2.073 8.962 8.962 0 0 1 1.742 3.102c.397 1.19.594 2.47.594 3.839a11.434 11.434 0 0 1-.63 3.839 9.64 9.64 0 0 1-1.762 3.101 8.15 8.15 0 0 1-2.726 2.074 8.037 8.037 0 0 1-3.488.757c-.841 0-1.582-.091-2.225-.272a7.482 7.482 0 0 1-1.706-.698 6.835 6.835 0 0 1-1.261-.91 6.524 6.524 0 0 1-.854-.95.112.112 0 0 0-.112.11v9.391c0 .94-.762 1.703-1.703 1.703h-1.044c-.94 0-1.703-.762-1.703-1.703V15.033c0-.94.762-1.702 1.703-1.702Zm13.06 9.306a6.31 6.31 0 0 0-.351-2.093 5.298 5.298 0 0 0-1.04-1.785 5.185 5.185 0 0 0-1.651-1.24c-.642-.31-1.372-.466-2.188-.466-.816 0-1.547.156-2.19.466-.627.298-1.188.72-1.65 1.24a5.303 5.303 0 0 0-1.039 1.784 6.3 6.3 0 0 0-.35 2.093c0 .725.116 1.422.35 2.094a5.28 5.28 0 0 0 1.04 1.784 5.19 5.19 0 0 0 1.651 1.241c.642.31 1.372.465 2.188.465.816 0 1.546-.156 2.188-.465a5.188 5.188 0 0 0 1.65-1.242 5.323 5.323 0 0 0 1.04-1.783 6.316 6.316 0 0 0 .352-2.093Zm10.867-9.305h1.274c.813 0 1.474.659 1.474 1.472v1.4c0 .04.032.075.074.075.494-1.087 1.198-1.927 2.114-2.521.915-.594 1.967-.892 3.153-.892.272 0 .539.026.797.078a.99.99 0 0 1 .799.971v2.553a.93.93 0 0 1-1.095.916 5.947 5.947 0 0 0-1.057-.098c-1.04 0-1.873.2-2.504.6-.63.402-1.112.86-1.447 1.379a4.68 4.68 0 0 0-.668 1.55c-.112.517-.166.904-.166 1.163v8.261c0 .94-.763 1.703-1.703 1.703h-1.045c-.94 0-1.703-.762-1.703-1.703V15.034c0-.94.761-1.704 1.703-1.704Zm15.06 0h1.045c.94 0 1.703.763 1.703 1.703v15.204c0 .94-.762 1.703-1.703 1.703h-1.045c-.94 0-1.703-.762-1.703-1.703V15.034c0-.94.762-1.704 1.703-1.704ZM99.081 7.01c0-.749.265-1.402.796-1.958.534-.555 1.207-.833 2.022-.833.816 0 1.503.265 2.059.794.557.53.835 1.196.835 1.997 0 .802-.278 1.468-.835 1.997-.556.53-1.243.795-2.059.795-.815 0-1.49-.278-2.022-.833a2.74 2.74 0 0 1-.796-1.96Zm19.179 10.573c-.904-.663-1.709-.996-2.412-.996-.594 0-1.175.156-1.745.465-.568.311-.852.814-.852 1.512 0 .57.234.983.704 1.242.471.257 1.064.478 1.781.659.718.18 1.49.368 2.318.561.83.195 1.602.492 2.319.892.718.4 1.311.95 1.781 1.649.47.698.705 1.653.705 2.869 0 1.111-.229 2.047-.686 2.81a5.518 5.518 0 0 1-1.781 1.843 7.714 7.714 0 0 1-2.467 1.007c-.9.205-1.821.31-2.745.31-1.385 0-2.659-.207-3.822-.62-.455-.162-1.001-.487-1.638-.976a1.704 1.704 0 0 1-.155-2.569l.462-.452a1.703 1.703 0 0 1 2.318-.062c.27.238.504.42.702.55.655.427 1.453.64 2.392.64.322 0 .656-.039 1.002-.117.347-.078.668-.206.964-.387.297-.182.539-.407.725-.678.184-.272.278-.588.278-.95 0-.647-.236-1.125-.706-1.435-.469-.31-1.064-.563-1.781-.756a37.408 37.408 0 0 0-2.318-.542 8.723 8.723 0 0 1-2.318-.816 4.931 4.931 0 0 1-1.781-1.57c-.469-.672-.705-1.603-.705-2.791 0-1.034.205-1.932.611-2.695.39-.74.942-1.383 1.615-1.88a6.831 6.831 0 0 1 2.301-1.087 10.111 10.111 0 0 1 2.633-.348c1.186 0 2.362.213 3.524.64.421.154.89.44 1.409.858a1.702 1.702 0 0 1 .098 2.567l-.554.521a1.703 1.703 0 0 1-2.176.132Zm10.123-4.252h.823c.939 0 1.703.763 1.703 1.703v1.205a7.28 7.28 0 0 1 1.985-2.347c.877-.685 2.058-1.027 3.542-1.027 2.795 0 4.649 1.15 5.564 3.45.644-1.188 1.447-2.06 2.412-2.617.964-.555 2.113-.833 3.45-.833 1.187 0 2.188.207 3.004.62.794.394 1.476.98 1.985 1.706.507.724.871 1.57 1.094 2.54.223.97.334 2.01.334 3.12v9.386c0 .94-.763 1.703-1.703 1.703h-1.046c-.94 0-1.703-.763-1.703-1.703v-8.843c0-.568-.049-1.118-.148-1.647a4.022 4.022 0 0 0-.52-1.396 2.677 2.677 0 0 0-1.001-.949c-.421-.234-.964-.35-1.633-.35-.691 0-1.279.136-1.761.407a3.49 3.49 0 0 0-1.187 1.086c-.317.47-.544.997-.668 1.55a7.704 7.704 0 0 0-.204 1.765v8.378c0 .94-.763 1.703-1.703 1.703h-1.045a1.703 1.703 0 0 1-1.703-1.703v-9.386c0-1.163-.234-2.087-.705-2.773-.471-.683-1.248-1.027-2.337-1.027-.741 0-1.367.13-1.874.388-.507.26-.927.608-1.261 1.048-.339.45-.586.964-.724 1.512a7.058 7.058 0 0 0-.221 1.783v8.455a1.701 1.701 0 0 1-1.704 1.703h-1.045a1.703 1.703 0 0 1-1.703-1.703V15.034c0-.94.763-1.704 1.703-1.704Zm33.09 0h1.044c.941 0 1.703.763 1.703 1.703v15.204c0 .94-.763 1.703-1.703 1.703h-1.044a1.703 1.703 0 0 1-1.703-1.703V15.034c0-.94.762-1.704 1.703-1.704Zm-2.335-6.321c0-.749.267-1.402.798-1.958.532-.555 1.205-.833 2.022-.833.816 0 1.503.265 2.059.794.556.53.835 1.196.835 1.997 0 .802-.279 1.468-.835 1.997-.556.53-1.243.795-2.059.795-.817 0-1.49-.278-2.022-.833a2.742 2.742 0 0 1-.798-1.96Zm21.776 10.885a4.554 4.554 0 0 0-.482-.338 3.388 3.388 0 0 0-1.745-.505c-.815 0-1.545.156-2.187.466-.628.298-1.19.72-1.651 1.24a5.297 5.297 0 0 0-1.039 1.784 6.294 6.294 0 0 0-.352 2.093c0 .725.117 1.422.352 2.094a5.257 5.257 0 0 0 1.04 1.784c.461.52 1.022.942 1.65 1.241.642.31 1.372.465 2.187.465a4.26 4.26 0 0 0 1.93-.446 2.76 2.76 0 0 0 .39-.245 1.702 1.702 0 0 1 2.282.24l.676.76a1.621 1.621 0 0 1-.399 2.483 10.372 10.372 0 0 1-3.468 1.26 8.864 8.864 0 0 1-1.411.136 10.283 10.283 0 0 1-3.783-.698 9.02 9.02 0 0 1-3.079-1.978 9.387 9.387 0 0 1-2.058-3.082c-.507-1.203-.761-2.54-.761-4.013 0-1.473.254-2.81.761-4.013a9.385 9.385 0 0 1 2.058-3.083 9.018 9.018 0 0 1 3.079-1.977 10.281 10.281 0 0 1 3.783-.698c1.139 0 2.282.226 3.432.679.439.173.956.48 1.551.924a1.704 1.704 0 0 1 .214 2.544l-.689.719a1.704 1.704 0 0 1-2.281.164Z" fill="currentColor"/><path fill-rule="evenodd" clip-rule="evenodd" d="m.848 22.937 3.454 3.46c.273.273.428.647.428 1.034v4.233c0 3.911.405 5.33 1.17 6.76a7.965 7.965 0 0 0 3.308 3.316c1.428.766 2.843 1.173 6.746 1.173h5.582a.292.292 0 0 1 .208.499l-3.454 3.46a1.456 1.456 0 0 1-1.03.428h-1.943c-5.204 0-7.09-.543-8.993-1.563a10.62 10.62 0 0 1-4.414-4.422C.892 39.408.35 37.516.35 32.302v-9.159a.292.292 0 0 1 .498-.206Zm7.293 7.286H8.14l4.708 4.509c.311.312.676.538 1.064.68.32.122.668.188 1.032.188h13.892a.292.292 0 0 1 .205.5l-3.455 3.46a1.46 1.46 0 0 1-1.031.428H13.484a5.843 5.843 0 0 1-5.837-5.85v-3.704a.292.292 0 0 1 .494-.21Z" fill="#7A91E9"/><path fill-rule="evenodd" clip-rule="evenodd" d="m43.168 25.863 3.453 3.46c.273.274.428.647.428 1.034v1.946c0 5.215-.542 7.106-1.56 9.013a10.62 10.62 0 0 1-4.412 4.423c-1.904 1.018-3.791 1.561-8.995 1.561h-9.138a.293.293 0 0 1-.205-.499v.001l3.451-3.459a1.457 1.457 0 0 1 1.033-.429h4.223c3.903 0 5.317-.407 6.745-1.173a7.965 7.965 0 0 0 3.31-3.316c.763-1.43 1.17-2.848 1.17-6.76V26.07a.293.293 0 0 1 .497-.207Zm-7.295-7.314 3.453 3.464c.273.274.426.646.426 1.034v11.095c0 3.23-2.613 5.85-5.837 5.85h-3.696a.292.292 0 0 1-.21-.494v-.002l4.498-4.717c.312-.312.538-.676.68-1.066.124-.33.187-.68.187-1.034V18.756a.292.292 0 0 1 .499-.207Z" fill="#F4CA43"/><path fill-rule="evenodd" clip-rule="evenodd" d="M32.082.5c5.204 0 7.091.543 8.995 1.563a10.62 10.62 0 0 1 4.412 4.422c1.018 1.907 1.56 3.799 1.56 9.013v9.159a.292.292 0 0 1-.5.206v-.001l-3.45-3.458a1.464 1.464 0 0 1-.429-1.035v-4.233c0-3.911-.407-5.33-1.17-6.76a7.966 7.966 0 0 0-3.31-3.316c-1.425-.766-2.841-1.172-6.744-1.172h-5.583a.293.293 0 0 1-.206-.5L29.11.93A1.457 1.457 0 0 1 30.14.5h1.94Zm1.833 7.313c3.224 0 5.837 2.619 5.837 5.85v3.703a.292.292 0 0 1-.494.21l-4.706-4.508a2.912 2.912 0 0 0-1.065-.68 2.907 2.907 0 0 0-1.032-.188H18.563a.292.292 0 0 1-.206-.5l3.456-3.46a1.458 1.458 0 0 1 1.031-.428h11.07Z" fill="#E85632"/><path fill-rule="evenodd" clip-rule="evenodd" d="M17.18 7.813a.292.292 0 0 1 .21.494l-4.499 4.718a2.903 2.903 0 0 0-.678 1.066c-.125.33-.189.68-.189 1.034v13.923a.293.293 0 0 1-.498.205L8.073 25.79a1.464 1.464 0 0 1-.426-1.033V13.662c0-3.23 2.613-5.85 5.837-5.85h3.696ZM24.455.5a.292.292 0 0 1 .205.5L21.21 4.457a1.46 1.46 0 0 1-1.033.43h-4.223c-3.903 0-5.319.406-6.746 1.172a7.965 7.965 0 0 0-3.31 3.316c-.763 1.43-1.17 2.849-1.17 6.76v5.596a.292.292 0 0 1-.498.206L.78 18.48a1.463 1.463 0 0 1-.429-1.035v-1.946c0-5.214.542-7.106 1.56-9.013a10.62 10.62 0 0 1 4.412-4.422C8.226 1.043 10.113.5 15.316.5h9.139Z" fill="#BD6FC9"/></svg>