<svg fill="none" xmlns="http://www.w3.org/2000/svg" viewBox="0 0 221 44"><path fill-rule="evenodd" clip-rule="evenodd" d="M58.958 34.83c-1.877 0-3.684-.253-5.42-.757-1.737-.505-3.18-1.203-4.33-2.095l1.76-3.907c2.393 1.666 5.08 2.5 8.06 2.5 1.55 0 2.74-.253 3.573-.758.833-.504 1.25-1.202 1.25-2.094 0-.798-.382-1.42-1.144-1.866-.763-.445-2.118-.88-4.066-1.302-2.182-.446-3.925-.985-5.227-1.62-1.303-.633-2.253-1.413-2.851-2.34-.599-.927-.898-2.07-.898-3.432 0-1.502.417-2.84 1.25-4.013s2-2.094 3.502-2.763c1.502-.669 3.239-1.003 5.21-1.003 1.76 0 3.455.258 5.086.774 1.631.517 2.928 1.209 3.89 2.077l-1.76 3.907c-2.277-1.666-4.67-2.499-7.181-2.499-1.432 0-2.558.276-3.38.827-.82.552-1.231 1.309-1.231 2.27 0 .564.158 1.027.475 1.391.317.364.845.687 1.584.968.74.282 1.79.575 3.15.88 3.192.704 5.486 1.607 6.882 2.71s2.094 2.629 2.094 4.577c0 2.346-.903 4.194-2.71 5.544-1.807 1.349-4.33 2.024-7.568 2.024Zm23.02-3.943c.54 0 1.104-.035 1.69-.105l-.281 3.872c-.68.093-1.361.14-2.042.14-2.628 0-4.546-.575-5.755-1.724-1.209-1.15-1.813-2.899-1.813-5.245v-6.618h-3.273V17.23h3.273v-5.07h5.315v5.07h4.33v3.977h-4.33v6.582c0 2.066.962 3.098 2.887 3.098Zm12.356 3.907c-1.83 0-3.438-.37-4.823-1.108a7.776 7.776 0 0 1-3.203-3.133c-.75-1.35-1.126-2.94-1.126-4.77 0-1.83.375-3.42 1.126-4.77a7.664 7.664 0 0 1 3.203-3.115c1.385-.727 2.993-1.09 4.823-1.09 1.83 0 3.438.363 4.822 1.09a7.665 7.665 0 0 1 3.204 3.116c.75 1.349 1.126 2.939 1.126 4.77 0 1.83-.376 3.42-1.126 4.769a7.776 7.776 0 0 1-3.204 3.132c-1.384.74-2.992 1.11-4.822 1.11Zm0-4.048c2.581 0 3.872-1.654 3.872-4.963 0-1.666-.335-2.91-1.003-3.731-.67-.822-1.625-1.232-2.87-1.232-2.58 0-3.871 1.654-3.871 4.963s1.29 4.963 3.872 4.963Zm23.866-9.574-2.992.317c-1.479.14-2.523.557-3.133 1.25-.61.692-.915 1.613-.915 2.762v9.012h-5.316V17.23h5.104v2.921c.869-1.995 2.664-3.086 5.386-3.273l1.549-.106.317 4.4Zm15.444-3.907h5.209l-10.419 23.584h-5.386l3.309-7.287-7.11-16.297h5.526l4.365 10.982 4.506-10.982Zm17.529-.458c1.502 0 2.828.364 3.978 1.091 1.15.728 2.047 1.766 2.692 3.116.646 1.349.969 2.915.969 4.699 0 1.783-.323 3.361-.969 4.734-.645 1.373-1.548 2.44-2.71 3.203-1.162.763-2.481 1.144-3.96 1.144-1.197 0-2.276-.252-3.238-.756-.962-.505-1.702-1.203-2.218-2.095v2.57h-5.245V9.697h5.316v9.856c.516-.869 1.249-1.543 2.2-2.024.95-.481 2.012-.722 3.185-.722Zm-1.549 13.94c1.244 0 2.206-.44 2.887-1.32.68-.88 1.02-2.119 1.02-3.714 0-1.573-.34-2.775-1.02-3.608-.681-.833-1.643-1.25-2.887-1.25-1.243 0-2.206.428-2.886 1.285-.681.856-1.021 2.07-1.021 3.643 0 1.596.34 2.822 1.021 3.678.68.857 1.643 1.285 2.886 1.285Zm20.733 4.047c-1.83 0-3.438-.37-4.822-1.108a7.775 7.775 0 0 1-3.204-3.133c-.75-1.35-1.126-2.94-1.126-4.77 0-1.83.376-3.42 1.126-4.77a7.664 7.664 0 0 1 3.204-3.115c1.384-.727 2.992-1.09 4.822-1.09 1.831 0 3.438.363 4.822 1.09a7.664 7.664 0 0 1 3.204 3.116c.751 1.349 1.126 2.939 1.126 4.77 0 1.83-.375 3.42-1.126 4.769a7.775 7.775 0 0 1-3.204 3.132c-1.384.74-2.991 1.11-4.822 1.11Zm0-4.048c2.581 0 3.872-1.654 3.872-4.963 0-1.666-.334-2.91-1.003-3.731-.669-.822-1.625-1.232-2.869-1.232-2.581 0-3.872 1.654-3.872 4.963s1.291 4.963 3.872 4.963Zm19.818 4.048c-1.831 0-3.438-.37-4.823-1.108a7.779 7.779 0 0 1-3.203-3.133c-.751-1.35-1.126-2.94-1.126-4.77 0-1.83.375-3.42 1.126-4.77a7.667 7.667 0 0 1 3.203-3.115c1.385-.727 2.992-1.09 4.823-1.09 1.83 0 3.438.363 4.822 1.09a7.662 7.662 0 0 1 3.203 3.116c.751 1.349 1.127 2.939 1.127 4.77 0 1.83-.376 3.42-1.127 4.769a7.773 7.773 0 0 1-3.203 3.132c-1.384.74-2.992 1.11-4.822 1.11Zm0-4.048c2.581 0 3.872-1.654 3.872-4.963 0-1.666-.335-2.91-1.004-3.731-.668-.822-1.625-1.232-2.868-1.232-2.582 0-3.872 1.654-3.872 4.963s1.29 4.963 3.872 4.963Zm30.175 3.767h-6.512l-6.618-7.71v7.71h-5.315V9.697h5.315v14.925l6.371-7.357h6.336l-7.251 8.236 7.674 9.012Z" fill="currentColor"/><mask id="a" style="mask-type:alpha" maskUnits="userSpaceOnUse" x="0" y="0" width="36" height="44"><path d="M1.715 40.544.352 4.227a2.212 2.212 0 0 1 2.072-2.29L33.316.003a2.212 2.212 0 0 1 2.35 2.208v39.576a2.212 2.212 0 0 1-2.311 2.21L3.826 42.672a2.212 2.212 0 0 1-2.111-2.127Z" fill="#fff"/></mask><g mask="url(#a)"><path d="M1.715 40.544.352 4.227a2.212 2.212 0 0 1 2.072-2.29L33.316.003a2.212 2.212 0 0 1 2.35 2.208v39.576a2.212 2.212 0 0 1-2.311 2.21L3.826 42.672a2.212 2.212 0 0 1-2.111-2.127Z" fill="#FF4785"/><path d="m26.428 5.408.211-5.075L30.881 0l.183 5.234a.33.33 0 0 1-.534.27l-1.636-1.288-1.937 1.469a.33.33 0 0 1-.529-.277ZM21.003 16.584c0 .86 5.797.448 6.575-.156 0-5.861-3.145-8.941-8.903-8.941-5.76 0-8.986 3.128-8.986 7.82 0 8.17 11.028 8.327 11.028 12.784 0 1.251-.613 1.994-1.96 1.994-1.757 0-2.451-.897-2.37-3.946 0-.662-6.698-.868-6.902 0-.52 7.39 4.084 9.521 9.353 9.521 5.105 0 9.108-2.72 9.108-7.647 0-8.758-11.191-8.523-11.191-12.863 0-1.76 1.307-1.994 2.083-1.994.817 0 2.287.144 2.165 3.428Z" fill="#fff"/></g></svg>