<svg fill="none" xmlns="http://www.w3.org/2000/svg" viewBox="0 0 50 60"><g clip-path="url(#a)"><path d="M46.789 7.932C41.233-.05 30.173-2.39 22.222 2.644l-14.016 8.95C4.383 13.982 1.733 17.897.968 22.321c-.662 3.712-.102 7.526 1.682 10.83a15.33 15.33 0 0 0-2.395 6A17.077 17.077 0 0 0 3.16 52.069c5.607 7.983 16.616 10.322 24.567 5.288l14.016-8.898c3.823-2.39 6.473-6.305 7.238-10.73.662-3.711.102-7.525-1.682-10.83a15.331 15.331 0 0 0 2.395-6A16.723 16.723 0 0 0 46.79 7.932Z" fill="#FF3E00"/><path d="M20.846 52.83A11.123 11.123 0 0 1 8.92 48.407c-1.63-2.237-2.242-5.034-1.783-7.78.102-.458.203-.864.305-1.322l.255-.813.714.508a18.61 18.61 0 0 0 5.504 2.746l.51.152-.05.509a3.397 3.397 0 0 0 .56 2.085c.815 1.169 2.242 1.728 3.618 1.372.306-.101.612-.203.867-.355l13.965-8.899c.714-.457 1.173-1.118 1.325-1.932a3.15 3.15 0 0 0-.51-2.339c-.815-1.17-2.242-1.678-3.618-1.322-.306.102-.612.203-.866.356l-5.352 3.407A9.494 9.494 0 0 1 21.509 36a11.123 11.123 0 0 1-11.927-4.424c-1.58-2.237-2.243-5.034-1.733-7.78.459-2.643 2.09-5.033 4.383-6.457L26.25 8.441c.866-.56 1.835-.966 2.854-1.272 4.536-1.169 9.276.61 11.927 4.424 1.63 2.238 2.242 5.034 1.783 7.78-.102.457-.203.864-.356 1.322l-.255.814-.714-.509a18.61 18.61 0 0 0-5.504-2.746l-.51-.152.051-.509a3.397 3.397 0 0 0-.56-2.085c-.816-1.169-2.243-1.677-3.62-1.322-.305.102-.611.204-.866.356l-13.965 8.899c-.714.457-1.172 1.118-1.325 1.932a3.15 3.15 0 0 0 .51 2.339c.815 1.17 2.242 1.678 3.618 1.322.306-.102.612-.203.866-.356l5.352-3.407c.867-.56 1.835-.966 2.854-1.271 4.537-1.17 9.277.61 11.927 4.424 1.631 2.237 2.243 5.034 1.784 7.78-.459 2.643-2.09 5.033-4.383 6.457L23.7 51.559c-.866.56-1.835.966-2.854 1.272Z" fill="#fff"/></g><defs><clipPath id="a"><path fill="#fff" d="M0 0h50v60H0z"/></clipPath></defs></svg>