<svg fill="none" xmlns="http://www.w3.org/2000/svg" viewBox="0 0 193 44"><path d="M96.156 11c-7.473 0-12.861 4.874-12.861 12.185 0 7.311 6.065 12.185 13.538 12.185 4.515 0 8.496-1.787 10.96-4.8l-5.179-2.992c-1.367 1.497-3.445 2.37-5.78 2.37-3.243 0-5.998-1.692-7.02-4.4h18.967c.149-.758.237-1.544.237-2.37 0-7.304-5.388-12.177-12.862-12.177Zm-6.403 9.816c.846-2.7 3.16-4.4 6.397-4.4 3.242 0 5.557 1.7 6.396 4.4H89.753Zm79.294-9.815c-7.473 0-12.861 4.873-12.861 12.184 0 7.311 6.065 12.185 13.538 12.185 4.515 0 8.496-1.787 10.96-4.8l-5.179-2.992c-1.367 1.497-3.445 2.37-5.781 2.37-3.242 0-5.997-1.692-7.019-4.4h18.967c.149-.758.237-1.544.237-2.37 0-7.304-5.388-12.177-12.862-12.177Zm-6.397 9.815c.847-2.7 3.162-4.4 6.397-4.4 3.243 0 5.558 1.7 6.397 4.4H162.65Zm-26.42 2.37c0 4.06 2.654 6.768 6.769 6.768 2.789 0 4.881-1.265 5.957-3.33l5.199 2.999c-2.153 3.588-6.187 5.747-11.156 5.747-7.48 0-12.861-4.874-12.861-12.185 0-7.31 5.388-12.184 12.861-12.184 4.969 0 8.997 2.16 11.156 5.747l-5.199 2.998c-1.076-2.064-3.168-3.33-5.957-3.33-4.109 0-6.769 2.708-6.769 6.77Zm55.833-19.631v31.138h-6.093V3.555h6.093ZM25.695.17l25.013 43.323H.683L25.695.17ZM88.23 3.555 69.472 36.047 50.715 3.555h7.033l11.724 20.307L81.196 3.555h7.034Zm39.877 8.123v6.559a7.715 7.715 0 0 0-2.166-.332c-3.933 0-6.769 2.708-6.769 6.77v10.018h-6.093V11.678h6.093v6.227c0-3.439 4-6.227 8.935-6.227Z" fill="currentColor"/></svg>